<svg width="111" height="153" viewBox="0 0 111 153" fill="none" xmlns="http://www.w3.org/2000/svg">
<circle cx="40" cy="89" r="64" fill="url(#paint0_linear_392_208)"/>
<path d="M44.2666 78.3333L34.6666 87.9333L44.2666 97.5333" stroke="white" stroke-width="1.5" stroke-linecap="round" stroke-linejoin="round"/>
<path d="M89.7749 34.1029C89.1226 33.3698 88.8357 32.7184 88.9142 32.1488C88.9928 31.5792 89.4407 30.8951 90.2579 30.0966L95.5648 24.9889L96.2163 25.6728L90.8854 30.8018C90.286 31.3637 89.9616 31.8094 89.9121 32.139C89.8706 32.4615 90.0839 32.8856 90.5519 33.4116L90.6582 33.5311L89.8813 34.2225L89.7749 34.1029ZM96.6699 37.6397C96.2635 38.0013 96.0401 38.4 95.9996 38.8359C95.9741 39.2726 96.1422 39.6941 96.5038 40.1006L95.7268 40.7919C95.1029 40.0906 94.9094 39.3276 95.1463 38.5028C95.1153 38.5161 95.0192 38.5445 94.858 38.588C94.4515 38.6927 94.0538 38.6469 93.6648 38.4504C93.2909 38.2548 93.0307 37.9223 92.8843 37.4529L92.2838 35.1173C91.3104 35.2268 90.5117 34.9309 89.8877 34.2296L89.7707 34.0982L90.5477 33.4068L90.6646 33.5383C91.1894 34.128 91.8162 34.327 92.5451 34.1353L94.995 33.5188C95.6008 33.3653 96.1558 33.4354 96.66 33.7292C97.1712 34.031 97.4966 34.4769 97.6359 35.0668C97.8446 36.0233 97.5226 36.881 96.6699 37.6397ZM94.6689 37.7496C95.3669 37.5712 95.9137 37.2631 96.3094 36.8253C96.7131 36.3805 96.8542 35.9051 96.7326 35.3994C96.6482 35.0318 96.4377 34.7551 96.101 34.5693C95.7714 34.3914 95.3918 34.3579 94.9622 34.4689L93.2484 34.9016L93.8582 37.2717C93.9362 37.4878 94.0488 37.6304 94.1959 37.6994C94.343 37.7684 94.5006 37.7852 94.6689 37.7496ZM102.44 37.5772L102.507 36.2325L103.862 36.3115L103.783 37.6669L102.44 37.5772ZM95.6184 40.67L96.3954 39.9787L97.2356 40.923C97.6894 41.433 98.1608 41.706 98.6498 41.7421C99.1459 41.7861 99.6258 41.459 100.09 40.7607L101.445 38.6979L102.232 39.1971L100.876 41.2599C100.522 41.7757 100.148 42.1506 99.7569 42.3846C99.3726 42.6266 98.9772 42.7358 98.5706 42.7121C98.171 42.6964 97.7919 42.5911 97.433 42.3964C97.0812 42.2097 96.7564 41.949 96.4586 41.6143L95.6184 40.67Z" fill="#E8E8E8"/>
<path d="M81.7449 16.9624C81.7351 16.9182 81.722 16.8593 81.7056 16.7857C81.6892 16.7121 81.6646 16.6017 81.6318 16.4544C81.6047 16.2982 81.5797 16.1685 81.5567 16.0655L81.5137 15.9244L82.5517 15.6931C82.7026 16.3704 82.7752 16.7135 82.7695 16.7225L82.518 16.7902C82.347 16.8205 82.1732 16.8554 81.9965 16.8948L81.7449 16.9624ZM80.7648 17.6097L79.5943 17.8705L79.3335 16.6999L80.504 16.4391L80.7648 17.6097ZM81.8223 19.2866L81.5615 18.116L82.7321 17.8552L82.9929 19.0258L81.8223 19.2866ZM82.6053 23.8413C82.4534 24.3388 82.4553 24.8329 82.6111 25.3237C82.7815 25.8112 83.0783 26.1894 83.5014 26.4583L82.9435 27.336C82.1513 26.8325 81.703 26.0863 81.5985 25.0972C80.8388 25.537 80.0043 25.4679 79.0951 24.89C78.3299 24.4037 77.9372 23.7686 77.9172 22.9849C77.199 23.2995 76.4664 23.2193 75.7192 22.7444C75.1071 22.3553 74.7304 21.8442 74.5894 21.2111L74.3773 21.664C74.1485 22.1632 73.8776 22.5597 73.5644 22.8536C73.2545 23.1622 72.9454 23.3701 72.637 23.4775C72.3287 23.5848 71.9581 23.621 71.5253 23.5861C71.0868 23.5602 70.6994 23.5035 70.3631 23.4162C70.0268 23.3288 69.6111 23.1973 69.1161 23.0217C68.126 22.6705 67.3739 22.1735 66.8598 21.5308C66.3399 20.897 66.0937 20.1907 66.1211 19.4119C66.1517 18.6478 66.4078 17.8373 66.8892 16.9805C67.3853 16.1204 68.144 15.2945 69.1654 14.5029L69.7462 15.2891C68.0298 16.6375 67.1486 17.9543 67.1027 19.2396C67.0511 20.5338 67.8468 21.4693 69.4898 22.0459C70.5364 22.4078 71.2433 22.598 71.6107 22.6166C72.4492 22.6693 73.0818 22.2309 73.5083 21.3013L75.3198 17.258L76.1888 17.6208C75.9715 18.102 75.7402 18.6249 75.4951 19.1895C75.2451 19.8016 75.1824 20.3178 75.307 20.7382C75.4373 21.1497 75.7545 21.5156 76.2586 21.836C77.1499 22.4024 77.853 22.2806 78.3679 21.4704L79.4235 19.8095L80.1662 20.2815L79.1106 21.9424C79.0419 22.0504 78.9864 22.1478 78.9439 22.2346C78.9104 22.327 78.8761 22.4506 78.841 22.6052C78.8149 22.7656 78.8166 22.912 78.8461 23.0445C78.8847 23.1828 78.9649 23.3349 79.0869 23.5009C79.2179 23.6726 79.3959 23.83 79.621 23.973C80.1791 24.3278 80.6447 24.4404 81.0177 24.311C81.3996 24.1872 81.6527 23.9183 81.7768 23.5043L82.3869 21.5602L83.2448 21.8211L82.6347 23.7652C82.629 23.7742 82.6204 23.7877 82.609 23.8057C82.6123 23.8204 82.611 23.8323 82.6053 23.8413ZM82.812 27.2524L83.3698 26.3747L85.3143 27.6106C85.5754 27.7765 85.8221 27.8954 86.0545 27.9673C86.3016 28.0358 86.5519 28.0496 86.8055 28.0086C87.0681 27.9732 87.2901 27.8426 87.4716 27.6167C87.6621 27.3966 87.8341 27.0762 87.9877 26.6556L88.7399 24.3089L89.6469 24.582L88.8825 26.9778C88.6824 27.5711 88.429 28.0293 88.1224 28.3527C87.8248 28.6817 87.4772 28.8905 87.0797 28.9791C86.6879 29.0587 86.2972 29.0568 85.9078 28.9736C85.5183 28.8904 85.1345 28.7286 84.7564 28.4883L82.812 27.2524ZM81.3864 30.0621L81.1255 28.8916L82.2961 28.6308L82.5569 29.8013L81.3864 30.0621ZM83.6144 31.4782L83.3536 30.3077L84.5242 30.0469L84.785 31.2174L83.6144 31.4782Z" fill="#E8E8E8"/>
<path d="M47.4373 14.246L47.2878 15.2752L46.417 15.1487L46.4101 15.1962C46.3602 16.504 45.9419 17.3432 45.1551 17.714C44.3789 18.0863 42.903 18.3407 40.7274 18.4774L40.6846 17.4365C42.5116 17.3246 43.6674 17.1961 44.152 17.0509C44.8041 16.8654 45.2078 16.4982 45.3629 15.9495C45.4147 15.7415 45.4462 15.4874 45.4575 15.1872L45.4669 15.0107L43.266 14.691C42.5377 14.5852 41.9817 14.2943 41.5982 13.8182C41.2162 13.3316 41.0524 12.715 41.107 11.9684C41.1602 11.157 41.4665 10.4577 42.026 9.87073C42.5856 9.28373 43.2635 9.03189 44.0598 9.11522C44.847 9.18646 45.4579 9.54465 45.8923 10.1898C46.3373 10.8365 46.5421 11.6531 46.5066 12.6395L46.4556 14.1034L47.4373 14.246ZM43.4155 13.6618L45.5056 13.9654L45.554 12.6305C45.5844 11.902 45.453 11.3224 45.1598 10.8918C44.8788 10.4522 44.4781 10.2053 43.9578 10.1513C43.4164 10.0942 42.9725 10.2561 42.6261 10.6369C42.2798 11.0178 42.0886 11.4804 42.0527 12.0249C41.9795 12.9736 42.4338 13.5192 43.4155 13.6618ZM51.1593 8.83684L50.0894 9.63534L49.275 8.56315L50.3631 7.75111L51.1593 8.83684ZM50.9678 13.2714C50.9439 13.8068 51.032 14.2023 51.2321 14.4577C51.4321 14.7131 51.796 14.8791 52.3238 14.9558L52.1743 15.985C51.2665 15.8531 50.6481 15.4723 50.3193 14.8425C49.7826 15.3466 49.0498 15.5311 48.1208 15.3962L47.1233 15.2513L47.2728 14.2221L48.2703 14.367C48.8298 14.4483 49.2531 14.3912 49.5401 14.1958C49.8378 14.0019 50.0029 13.6809 50.0357 13.233L50.0403 13.2013L50.149 11.2285L51.0788 11.2827L50.9701 13.2555L50.9678 13.2714ZM58.6518 11.6389C59.2526 12.1035 59.5655 12.7687 59.5907 13.6346C59.6279 14.4915 59.3619 15.3206 58.7929 16.1218C58.5492 16.4636 58.2153 16.6846 57.7912 16.7847C57.3791 16.8757 56.966 16.7888 56.5518 16.5238L54.5888 15.1231C53.9143 15.8335 53.1126 16.1213 52.1837 15.9863L52.0095 15.961L52.159 14.9318L52.3332 14.9571C53.1143 15.0706 53.7221 14.8194 54.1565 14.2034L55.6343 12.1546C55.9991 11.6471 56.4689 11.3434 57.0439 11.2437C57.6294 11.1455 58.1654 11.2773 58.6518 11.6389ZM58.1085 15.602C58.5277 15.0162 58.7478 14.4284 58.7688 13.8386C58.7913 13.2383 58.5933 12.7838 58.1746 12.475C57.8735 12.2481 57.5342 12.1718 57.1569 12.2464C56.7902 12.3225 56.4782 12.5412 56.2209 12.9026L55.188 14.3371L57.1804 15.7582C57.3792 15.8733 57.5571 15.91 57.7141 15.8681C57.8711 15.8262 58.0026 15.7375 58.1085 15.602Z" fill="#E8E8E8"/>
<defs>
<linearGradient id="paint0_linear_392_208" x1="104" y1="109.5" x2="-24" y2="74" gradientUnits="userSpaceOnUse">
<stop stop-color="#C96424"/>
<stop offset="1" stop-color="#FFA75F"/>
</linearGradient>
</defs>
</svg>
