<svg width="32" height="32" viewBox="0 0 32 32" fill="none" xmlns="http://www.w3.org/2000/svg">
<path d="M24.6745 12L23.0632 25.6516C22.9047 26.9947 21.7662 28.0067 20.4138 28.0067H11.5961C10.2438 28.0067 9.10541 26.9948 8.94676 25.6519L7.33398 12" stroke="currentColor" stroke-width="1.5" stroke-linecap="round" stroke-linejoin="round"/>
<path fill-rule="evenodd" clip-rule="evenodd" d="M20.8199 3.99475H11.1883C9.99741 3.99475 8.95077 4.78403 8.62333 5.92898L8.22285 7.32947H7.33413C6.75987 7.32945 6.25006 7.697 6.06863 8.24185L5.40234 10.2427C5.26687 10.6494 5.33516 11.0965 5.58588 11.4443C5.83661 11.792 6.2392 11.9981 6.66792 11.9981H25.3403C25.769 11.9981 26.1716 11.792 26.4223 11.4443C26.673 11.0965 26.7413 10.6494 26.6058 10.2427L25.9396 8.24185C25.7581 7.697 25.2483 7.32945 24.6741 7.32947H23.7853L23.3848 5.92898C23.0574 4.78401 22.0108 3.99475 20.8199 3.99475Z" stroke="currentColor" stroke-width="1.5" stroke-linecap="round" stroke-linejoin="round"/>
</svg>
