<svg width="32" height="32" viewBox="0 0 32 32" fill="none" xmlns="http://www.w3.org/2000/svg">
<path fill-rule="evenodd" clip-rule="evenodd" d="M14.4716 17.5232C12.9116 15.9632 11.7356 14.2165 10.9543 12.4445C10.7889 12.0698 10.8863 11.6312 11.1756 11.3418L12.2676 10.2512C13.1623 9.3565 13.1623 8.09117 12.3809 7.30983L10.8156 5.7445C9.77427 4.70317 8.08627 4.70317 7.04494 5.7445L6.17561 6.61383C5.18761 7.60183 4.77561 9.02717 5.04227 10.4405C5.70094 13.9245 7.72494 17.7392 10.9903 21.0045C14.2556 24.2698 18.0703 26.2938 21.5543 26.9525C22.9676 27.2192 24.3929 26.8072 25.3809 25.8192L26.2489 24.9512C27.2903 23.9098 27.2903 22.2218 26.2489 21.1805L24.6849 19.6165C23.9036 18.8352 22.6369 18.8352 21.8569 19.6165L20.6529 20.8218C20.3636 21.1112 19.9249 21.2085 19.5503 21.0432C17.7783 20.2605 16.0316 19.0832 14.4716 17.5232Z" stroke="#565656" stroke-width="1.5" stroke-linecap="round" stroke-linejoin="round"/>
</svg>
