<svg width="26" height="26" viewBox="0 0 26 26" fill="none" xmlns="http://www.w3.org/2000/svg">
<path fill-rule="evenodd" clip-rule="evenodd" d="M6.99467 1H19.0067C22.316 1 25 3.68267 25 6.99467V19.0067C25 22.316 22.3173 25 19.0053 25H6.99467C3.684 25 1 22.3173 1 19.0053V6.99467C1 3.684 3.68267 1 6.99467 1ZM17.2426 8.75736C19.5858 11.1005 19.5858 14.8995 17.2426 17.2426C14.8995 19.5858 11.1005 19.5858 8.75736 17.2426C6.41421 14.8995 6.41421 11.1005 8.75736 8.75736C11.1005 6.41421 14.8995 6.41421 17.2426 8.75736ZM17.1375 6.5035C17.1375 5.2015 18.1945 4.1445 19.4965 4.1375C20.8055 4.1375 21.8695 5.1945 21.8625 6.5035C21.8625 7.8055 20.8055 8.8625 19.5035 8.8625C18.2015 8.8625 17.1375 7.8055 17.1375 6.5035Z" fill="#222222"/>
<path d="M17.2426 17.2426L16.5355 16.5355L16.5355 16.5355L17.2426 17.2426ZM17.2426 8.75736L16.5355 9.46447L17.2426 8.75736ZM8.75736 17.2426L9.46447 16.5355L8.75736 17.2426ZM8.75736 8.75736L9.46447 9.46447L8.75736 8.75736ZM19.4965 4.1375V3.13749L19.4911 3.13751L19.4965 4.1375ZM21.8625 6.5035L20.8625 6.49815V6.5035H21.8625ZM19.0067 0H6.99467V2H19.0067V0ZM26 6.99467C26 3.13038 22.8683 0 19.0067 0V2C21.7637 2 24 4.23495 24 6.99467H26ZM26 19.0067V6.99467H24V19.0067H26ZM19.0053 26C22.8696 26 26 22.8683 26 19.0067H24C24 21.7637 21.765 24 19.0053 24V26ZM6.99467 26H19.0053V24H6.99467V26ZM0 19.0053C0 22.8698 3.13186 26 6.99467 26V24C4.23614 24 2 21.7649 2 19.0053H0ZM0 6.99467V19.0053H2V6.99467H0ZM6.99467 0C3.13024 0 0 3.13186 0 6.99467H2C2 4.23614 4.2351 2 6.99467 2V0ZM17.9497 17.9497C20.6834 15.2161 20.6834 10.7839 17.9497 8.05025L16.5355 9.46447C18.4882 11.4171 18.4882 14.5829 16.5355 16.5355L17.9497 17.9497ZM8.05025 17.9497C10.7839 20.6834 15.2161 20.6834 17.9497 17.9497L16.5355 16.5355C14.5829 18.4882 11.4171 18.4882 9.46447 16.5355L8.05025 17.9497ZM8.05025 8.05025C5.31658 10.7839 5.31658 15.2161 8.05025 17.9497L9.46447 16.5355C7.51184 14.5829 7.51184 11.4171 9.46447 9.46447L8.05025 8.05025ZM17.9497 8.05025C15.2161 5.31658 10.7839 5.31658 8.05025 8.05025L9.46447 9.46447C11.4171 7.51184 14.5829 7.51184 16.5355 9.46447L17.9497 8.05025ZM19.4911 3.13751C17.6421 3.14746 16.1375 4.64819 16.1375 6.5035H18.1375C18.1375 5.75481 18.7469 5.14154 19.5019 5.13749L19.4911 3.13751ZM22.8625 6.50885C22.8725 4.63851 21.3529 3.1375 19.4965 3.1375V5.1375C20.2581 5.1375 20.8665 5.75049 20.8625 6.49815L22.8625 6.50885ZM19.5035 9.8625C21.3578 9.8625 22.8625 8.35778 22.8625 6.5035H20.8625C20.8625 7.25322 20.2532 7.8625 19.5035 7.8625V9.8625ZM16.1375 6.5035C16.1375 8.36164 17.6531 9.8625 19.5035 9.8625V7.8625C18.7499 7.8625 18.1375 7.24936 18.1375 6.5035H16.1375Z" fill="#222222"/>
</svg>
