<svg width="24" height="24" viewBox="0 0 24 24" fill="none" xmlns="http://www.w3.org/2000/svg">
<path fill-rule="evenodd" clip-rule="evenodd" d="M10.4721 13.5233C8.91209 11.9633 7.73609 10.2166 6.95476 8.44462C6.78943 8.06996 6.88676 7.63129 7.17609 7.34196L8.26809 6.25129C9.16276 5.35662 9.16276 4.09129 8.38143 3.30996L6.81609 1.74462C5.77476 0.70329 4.08676 0.70329 3.04543 1.74462L2.17609 2.61396C1.18809 3.60196 0.776094 5.02729 1.04276 6.44062C1.70143 9.92462 3.72543 13.7393 6.99076 17.0046C10.2561 20.27 14.0708 22.294 17.5548 22.9526C18.9681 23.2193 20.3934 22.8073 21.3814 21.8193L22.2494 20.9513C23.2908 19.91 23.2908 18.222 22.2494 17.1806L20.6854 15.6166C19.9041 14.8353 18.6374 14.8353 17.8574 15.6166L16.6534 16.822C16.3641 17.1113 15.9254 17.2086 15.5508 17.0433C13.7788 16.2606 12.0321 15.0833 10.4721 13.5233Z" fill="#222222" stroke="#222222" stroke-linecap="round" stroke-linejoin="round"/>
</svg>
