<svg width="34" height="34" viewBox="0 0 34 34" fill="none" xmlns="http://www.w3.org/2000/svg">
<path fill-rule="evenodd" clip-rule="evenodd" d="M6.32315 15H22.3298C23.0665 15 23.6637 15.5972 23.6637 16.3339V20.3356C23.6637 24.7557 20.0805 28.3389 15.6604 28.3389H12.9926C8.57247 28.3389 4.98926 24.7557 4.98926 20.3356V16.3339C4.98926 15.5972 5.58646 15 6.32315 15Z" stroke="#727272" stroke-width="1.5" stroke-linecap="round" stroke-linejoin="round"/>
<path d="M19 10.9976C18.1107 10.0638 18.1107 8.59657 19 7.66285C19.8892 6.72913 19.8892 5.26184 19 4.32812" stroke="#727272" stroke-width="1.5" stroke-linecap="round" stroke-linejoin="round"/>
<path d="M14.3281 10.9976C13.4388 10.0638 13.4388 8.59657 14.3281 7.66285C15.2173 6.72912 15.2173 5.26185 14.3281 4.32812" stroke="#727272" stroke-width="1.5" stroke-linecap="round" stroke-linejoin="round"/>
<path d="M9.6562 10.9976C8.76694 10.0638 8.76694 8.59657 9.6562 7.66285C10.5455 6.72912 10.5455 5.26185 9.6562 4.32812" stroke="#727272" stroke-width="1.5" stroke-linecap="round" stroke-linejoin="round"/>
<path d="M22.5034 24.4905L24.9655 23.9271C27.3276 23.3866 29.0024 21.2852 29.0024 18.8621V18.8621C29.0024 17.8378 28.5955 16.8555 27.8712 16.1312C27.147 15.4069 26.1646 15 25.1403 15H21.666" stroke="#727272" stroke-width="1.5" stroke-linecap="round" stroke-linejoin="round"/>
</svg>

