<svg width="34" height="34" viewBox="0 0 34 34" fill="none" xmlns="http://www.w3.org/2000/svg">
<path d="M25.6745 13L24.0632 26.6516C23.9047 27.9947 22.7662 29.0067 21.4138 29.0067H12.5961C11.2438 29.0067 10.1054 27.9948 9.94676 26.6519L8.33398 13" stroke="#727272" stroke-width="1.5" stroke-linecap="round" stroke-linejoin="round"/>
<path fill-rule="evenodd" clip-rule="evenodd" d="M21.8199 4.99475H12.1883C10.9974 4.99475 9.95077 5.78403 9.62333 6.92898L9.22285 8.32947H8.33413C7.75987 8.32945 7.25006 8.697 7.06863 9.24185L6.40234 11.2427C6.26687 11.6494 6.33516 12.0965 6.58588 12.4443C6.83661 12.792 7.2392 12.9981 7.66792 12.9981H26.3403C26.769 12.9981 27.1716 12.792 27.4223 12.4443C27.673 12.0965 27.7413 11.6494 27.6058 11.2427L26.9396 9.24185C26.7581 8.697 26.2483 8.32945 25.6741 8.32947H24.7853L24.3848 6.92898C24.0574 5.78401 23.0108 4.99475 21.8199 4.99475Z" stroke="#727272" stroke-width="1.5" stroke-linecap="round" stroke-linejoin="round"/>
</svg>
