<svg width="34" height="34" viewBox="0 0 34 34" fill="none" xmlns="http://www.w3.org/2000/svg">
<path d="M23.0029 19.4001C24.0988 19.5847 25.2185 19.5757 26.3112 19.3735C27.1794 19.1839 28.0762 19.5371 28.5819 20.2678C29.0876 20.9985 29.1023 21.9622 28.619 22.708C28.2043 23.3096 27.7354 23.8722 27.2183 24.3886C26.6372 24.967 26.003 25.4894 25.3241 25.9491" stroke="#727272" stroke-width="1.5" stroke-linecap="round" stroke-linejoin="round"/>
<path d="M7.75488 9.1824C8.23279 8.36606 8.80597 7.60938 9.46239 6.92827C10.0038 6.37099 10.593 5.86221 11.2233 5.40776C11.9651 4.89812 12.9424 4.89128 13.6913 5.39048C14.4402 5.88968 14.8099 6.79441 14.6249 7.67522C14.3912 8.98366 14.4184 10.3254 14.705 11.6233" stroke="#727272" stroke-width="1.5" stroke-linecap="round" stroke-linejoin="round"/>
<path fill-rule="evenodd" clip-rule="evenodd" d="M17.2457 14.6293L19.3696 16.7547C20.0777 17.4633 20.2993 18.5237 19.9345 19.4566L16.8261 27.4052C16.5794 28.0354 16.0905 28.5404 15.4687 28.8075C14.847 29.0747 14.1441 29.0816 13.5172 28.8268C9.72833 27.2829 6.72281 24.2754 5.18139 20.4856C4.92662 19.8584 4.93344 19.1554 5.20032 18.5334C5.46721 17.9113 5.97196 17.4219 6.60198 17.1744L14.5454 14.0641C15.4778 13.699 16.5379 13.9209 17.2457 14.6293Z" stroke="#727272" stroke-width="1.5" stroke-linecap="round" stroke-linejoin="round"/>
<path d="M20.0692 18.1458C20.4473 18.2609 20.8362 18.3369 21.2298 18.3725C22.2057 18.4774 23.0326 19.1379 23.3508 20.0664L25.2851 25.7885C25.4958 26.4246 25.1741 27.1147 24.5514 27.3623C21.9762 28.4269 19.1381 28.6828 16.4141 28.096" stroke="#727272" stroke-width="1.5" stroke-linecap="round" stroke-linejoin="round"/>
<path d="M5.91453 17.5891C5.37811 15.0691 5.55832 12.4492 6.43475 10.0264C6.65983 9.36738 7.3762 9.01519 8.03554 9.23944L14.0118 11.2669C14.8759 11.54 15.5178 12.2691 15.6793 13.1609C15.7162 13.4242 15.7788 13.6833 15.8661 13.9345" stroke="#727272" stroke-width="1.5" stroke-linecap="round" stroke-linejoin="round"/>
</svg>
