<svg width="360" height="569" viewBox="0 0 360 569" fill="none" xmlns="http://www.w3.org/2000/svg">
<path d="M594 218.5C594 410.419 408.198 566 179 566C-50.1982 566 -236 410.419 -236 218.5C-236 26.5811 -50.1982 -129 179 -129C408.198 -129 594 26.5811 594 218.5ZM-165.103 218.5C-165.103 377.632 -11.0427 506.634 179 506.634C369.043 506.634 523.103 377.632 523.103 218.5C523.103 59.3679 369.043 -69.6342 179 -69.6342C-11.0427 -69.6342 -165.103 59.3679 -165.103 218.5Z" fill="#494949"/>
<path d="M561.904 153.448C563.479 244.164 522.619 332.018 448.057 398.236C373.495 464.455 271.144 503.786 162.875 507.826C54.6065 511.866 -50.9933 480.293 -131.359 419.855C-211.725 359.417 -260.482 274.907 -267.213 184.384C-273.944 93.8599 -238.113 4.5024 -167.379 -64.5946C-96.6443 -133.692 3.3845 -177.048 111.333 -185.399C219.281 -193.75 326.588 -166.433 410.322 -109.286C494.057 -52.1385 547.578 30.3067 559.45 120.433L557.881 120.586C546.055 30.8023 492.737 -51.3295 409.321 -108.259C325.905 -165.189 219.006 -192.402 111.468 -184.083C3.93042 -175.764 -95.718 -132.573 -166.184 -63.7382C-236.649 5.09608 -272.343 94.1138 -265.638 184.293C-258.933 274.473 -210.361 358.662 -130.301 418.87C-50.2406 479.078 54.9577 510.53 162.815 506.506C270.672 502.482 372.634 463.3 446.912 397.333C521.191 331.366 561.895 243.846 560.327 153.475L561.904 153.448Z" fill="#494949"/>
<path d="M575.634 243.029C570.711 333.625 523.667 418.329 444.557 479.04C365.446 539.751 260.542 571.655 152.261 567.934C43.9811 564.213 -59.0878 525.163 -134.921 459.127C-210.754 393.091 -253.337 305.308 -253.57 214.534C-253.804 123.761 -211.669 37.1976 -136.17 -26.6587C-60.6703 -90.515 42.2054 -126.6 150.475 -127.202C258.744 -127.804 363.819 -92.876 443.248 -29.8813C522.677 33.1134 570.16 119.178 575.549 209.923L573.974 209.963C568.605 119.564 521.303 33.8259 442.176 -28.9293C363.049 -91.6844 258.373 -126.48 150.516 -125.88C42.658 -125.28 -59.8266 -89.3325 -135.039 -25.7189C-210.251 37.8946 -252.226 124.129 -251.993 214.557C-251.761 304.985 -209.34 392.435 -133.795 458.22C-58.25 524.004 44.427 562.907 152.296 566.613C260.164 570.32 364.669 538.538 443.479 478.057C522.289 417.577 569.154 333.195 574.059 242.944L575.634 243.029Z" fill="#494949"/>
</svg>
