<svg width="27" height="40" viewBox="0 0 27 40" fill="none" xmlns="http://www.w3.org/2000/svg">
<path d="M5.11908 38.6905L2.83733 11.3096H24.1626L21.8808 38.6905H5.11908Z" stroke="white" stroke-width="1.19048"/>
<circle cx="13.5002" cy="24.4048" r="4.7619" stroke="white" stroke-width="1.19048"/>
<mask id="path-3-inside-1_133_400" fill="white">
<path d="M24.8095 11.9048C24.8095 8.74742 23.6179 5.7194 21.497 3.48682C19.376 1.25425 16.4994 2.38373e-07 13.5 0C10.5005 -2.38372e-07 7.62386 1.25425 5.50291 3.48682C3.38197 5.7194 2.19043 8.74742 2.19043 11.9048L13.5 11.9048H24.8095Z"/>
</mask>
<path d="M24.8095 11.9048C24.8095 8.74742 23.6179 5.7194 21.497 3.48682C19.376 1.25425 16.4994 2.38373e-07 13.5 0C10.5005 -2.38372e-07 7.62386 1.25425 5.50291 3.48682C3.38197 5.7194 2.19043 8.74742 2.19043 11.9048L13.5 11.9048H24.8095Z" stroke="white" stroke-width="2.38095" mask="url(#path-3-inside-1_133_400)"/>
<path d="M1 11.3093H26" stroke="white" stroke-width="1.19048" stroke-linecap="round"/>
</svg>
