<svg width="18" height="18" viewBox="0 0 18 18" fill="none" xmlns="http://www.w3.org/2000/svg">
<path fill-rule="evenodd" clip-rule="evenodd" d="M7.85419 10.1424C6.68419 8.97241 5.80219 7.66241 5.21619 6.33341C5.09219 6.05241 5.16519 5.72341 5.38219 5.50641L6.20119 4.68841C6.87219 4.01741 6.87219 3.06841 6.28619 2.48241L5.11219 1.30841C4.33119 0.527406 3.06519 0.527406 2.28419 1.30841L1.63219 1.96041C0.891193 2.70141 0.582193 3.77041 0.782193 4.83041C1.27619 7.44341 2.79419 10.3044 5.24319 12.7534C7.69219 15.2024 10.5532 16.7204 13.1662 17.2144C14.2262 17.4144 15.2952 17.1054 16.0362 16.3644L16.6872 15.7134C17.4682 14.9324 17.4682 13.6664 16.6872 12.8854L15.5142 11.7124C14.9282 11.1264 13.9782 11.1264 13.3932 11.7124L12.4902 12.6164C12.2732 12.8334 11.9442 12.9064 11.6632 12.7824C10.3342 12.1954 9.02419 11.3124 7.85419 10.1424Z" stroke="white" stroke-linecap="round" stroke-linejoin="round"/>
</svg>
