<svg xmlns="http://www.w3.org/2000/svg" xmlns:xlink="http://www.w3.org/1999/xlink" width="1080" zoomAndPan="magnify" viewBox="0 0 810 809.999993" height="1080" preserveAspectRatio="xMidYMid meet" version="1.0"><defs><clipPath id="6094c66193"><path d="M 63 225.617188 L 692 225.617188 L 692 719.644531 L 63 719.644531 Z M 63 225.617188 " clip-rule="nonzero"/></clipPath><clipPath id="1efe27e19b"><path d="M 338 81.003906 L 568 81.003906 L 568 356 L 338 356 Z M 338 81.003906 " clip-rule="nonzero"/></clipPath><clipPath id="1519d9e4b4"><path d="M 0.238281 226 L 116 226 L 116 450 L 0.238281 450 Z M 0.238281 226 " clip-rule="nonzero"/></clipPath></defs><g clip-path="url(#6094c66193)"><path fill="#373434" d="M 63.875 719.21875 C 93.363281 655.851562 125.042969 592.9375 165.722656 535.527344 C 206.902344 478.261719 257.71875 429.507812 308.425781 381.34375 C 334.101562 357.65625 358.886719 332.628906 388.832031 313.140625 C 418.816406 293.683594 452.402344 281.328125 485.878906 271.050781 C 552.832031 250.011719 621.59375 234.761719 691.050781 225.824219 L 691.195312 226.710938 C 622.722656 241.152344 555.164062 258.769531 488.664062 279.917969 C 455.609375 290.683594 422.632812 302.125 393.386719 320.308594 C 364.292969 338.628906 338.546875 362.636719 311.742188 385.058594 C 285.292969 407.863281 259.371094 431.378906 235.785156 457.148438 C 211.984375 482.746094 191.109375 510.78125 171.863281 539.800781 C 132.699219 597.382812 99.613281 658.953125 64.6875 719.644531 L 63.875 719.21875 " fill-opacity="1" fill-rule="nonzero"/></g><path fill="#373434" d="M 638.640625 261.878906 C 631.691406 256.265625 624.980469 248.84375 624.058594 239.066406 C 623.5625 229.113281 629.78125 220.5625 635.675781 213.648438 C 641.859375 206.65625 648.714844 200.554688 655.59375 194.652344 C 662.625 188.542969 670.464844 183.246094 679.007812 179.015625 C 687.585938 174.957031 697.125 172.09375 707.015625 171.949219 C 716.929688 171.738281 726.363281 174.386719 735.050781 177.460938 C 752.320312 183.777344 768.8125 191.722656 784.492188 201.078125 C 788.410156 203.375 792.332031 205.742188 796.144531 208.171875 L 801.867188 211.914062 C 803.703125 213.226562 805.855469 213.929688 807.726562 216.46875 C 809.5625 219.191406 808.398438 222.652344 806.914062 224.523438 C 805.433594 226.566406 803.453125 228.121094 801.582031 229.394531 C 797.875 232.007812 794.273438 234.761719 790.460938 237.265625 C 775.519531 247.617188 759.984375 257.359375 743.277344 264.976562 C 726.613281 272.289062 708.777344 278.363281 689.992188 278.753906 C 680.707031 279.03125 671.3125 277.832031 662.515625 275.046875 C 653.792969 272.117188 645.640625 267.699219 638.640625 261.878906 Z M 639.210938 261.171875 C 646.164062 266.820312 654.398438 270.988281 663.113281 272.75 C 671.875 274.40625 680.804688 274.476562 689.492188 273.101562 C 706.871094 270.347656 723.644531 264.171875 740.417969 258.0625 C 757.085938 251.808594 773.683594 244.542969 788.835938 234.835938 C 792.613281 232.394531 796.355469 229.890625 799.921875 227.171875 C 803.347656 224.839844 806.914062 220.78125 805.078125 218.242188 C 804.265625 217.039062 802.007812 215.945312 800.101562 214.78125 L 794.203125 211.5625 C 790.210938 209.449219 786.222656 207.394531 782.160156 205.460938 C 765.914062 197.761719 749.210938 191.128906 732.332031 185.542969 C 723.925781 182.828125 715.519531 180.921875 707.292969 181.347656 C 699.03125 181.800781 690.839844 184.09375 683.136719 187.738281 C 675.335938 191.226562 668.058594 196.132812 661.070312 201.429688 C 653.9375 206.980469 646.550781 212.132812 639.917969 217.851562 C 633.453125 223.566406 627.207031 230.414062 626.601562 239.03125 C 626.246094 247.714844 632.429688 255.585938 639.210938 261.171875 " fill-opacity="1" fill-rule="nonzero"/><path fill="#373434" d="M 564.347656 222.542969 C 574.265625 214.707031 584.714844 207.648438 595.066406 200.554688 C 600.21875 197.128906 605.09375 193.523438 608.945312 189.320312 C 612.796875 185.226562 615.128906 180.074219 617.316406 174.425781 C 619.46875 168.738281 621.484375 162.597656 624.730469 156.734375 C 627.984375 150.910156 632.042969 145.863281 636.066406 141.023438 C 644.121094 131.597656 652.273438 121.183594 652.492188 108.933594 L 655.3125 110.097656 L 640.125 128.246094 C 634.972656 134.316406 628.96875 140.179688 621.691406 144.414062 C 614.667969 148.722656 607.21875 151.546875 600.828125 155.324219 C 594.328125 159.066406 589.382812 163.585938 586.027344 169.761719 C 582.710938 175.941406 580.378906 183.355469 577.726562 190.835938 L 569.574219 212.980469 C 566.925781 220.355469 563.921875 227.667969 561.023438 234.972656 C 559.574219 238.675781 558.019531 242.066406 557.738281 245.601562 C 557.59375 247.328125 557.984375 249.269531 558.128906 251.320312 C 558.308594 253.292969 558.054688 255.875 556.328125 257.359375 L 555.660156 256.753906 C 557.667969 253.582031 555.054688 250.011719 554.628906 245.707031 C 554.140625 241.289062 555.445312 237.195312 556.402344 233.453125 C 558.371094 225.824219 560.28125 218.167969 562.503906 210.648438 L 569.039062 187.980469 C 571.445312 180.570312 573.316406 172.699219 577.582031 165.066406 C 581.652344 157.195312 589.238281 151.191406 596.515625 147.519531 C 603.898438 143.707031 611.277344 141.023438 617.949219 137.671875 C 631.046875 130.996094 641.824219 118.957031 652.90625 107.910156 L 656.054688 104.765625 L 655.738281 109.074219 C 654.777344 122.632812 646.027344 133.046875 639.417969 143.496094 C 636.03125 148.757812 632.785156 154.050781 630.558594 159.523438 C 628.398438 165.03125 627.023438 171.035156 624.875 177.179688 C 622.757812 183.246094 619.574219 189.742188 614.59375 194.6875 C 609.792969 199.667969 604.035156 203.058594 598.53125 206.203125 C 587.402344 212.167969 576.355469 218.097656 564.800781 223.320312 L 564.347656 222.542969 " fill-opacity="1" fill-rule="nonzero"/><path fill="#373434" d="M 525.539062 377.890625 C 527.652344 396.710938 529.839844 415.625 536.023438 433.140625 C 539.097656 441.863281 543.328125 450.054688 548.492188 457.5 C 553.789062 464.882812 560.28125 471.375 567.628906 476.777344 C 582.394531 487.578125 599.480469 495.0625 617.488281 499.871094 C 635.46875 504.878906 654.21875 507.671875 673.003906 510.074219 L 671.207031 512.433594 C 659.199219 480.277344 641.433594 450.332031 620.171875 423.535156 C 614.910156 416.828125 609.261719 410.402344 603.648438 403.941406 C 597.960938 397.550781 592.273438 391.234375 585.882812 386.1875 C 579.527344 381.027344 572.539062 377.601562 564.800781 377.042969 C 557.035156 376.265625 548.84375 378.136719 539.769531 378.839844 C 535.246094 379.195312 530.445312 379.15625 525.636719 378.207031 C 520.835938 377.1875 516.777344 375.695312 512.574219 374.042969 C 504.273438 370.6875 496.472656 366.730469 488.878906 362.914062 C 481.214844 359.136719 473.621094 355.648438 465.78125 353.425781 C 457.800781 351.203125 449.4375 349.332031 441.101562 348.019531 C 407.6875 342.933594 372.910156 345.09375 340.175781 355.820312 L 339.859375 354.972656 C 371.425781 340.746094 407.371094 335.910156 442.195312 340.078125 C 450.957031 341.097656 459.5 342.578125 468.1875 344.667969 C 476.972656 347 485.136719 350.632812 493.011719 354.339844 C 500.886719 358.007812 508.441406 362.003906 516.144531 365.074219 C 519.914062 366.628906 523.984375 368.003906 527.617188 368.855469 C 531.25 369.667969 535.140625 369.804688 539.199219 369.59375 C 547.289062 369.207031 556.183594 367.335938 565.648438 368.394531 C 575.222656 369.277344 584.265625 374.042969 591.007812 379.972656 C 597.925781 385.9375 603.511719 392.714844 609.015625 399.394531 C 614.523438 406.136719 619.683594 413.121094 624.65625 420.21875 C 644.582031 448.679688 660.789062 479.355469 674.449219 511.132812 L 675.542969 513.746094 L 672.652344 513.5 C 653.757812 511.910156 634.691406 510.707031 615.832031 506.613281 C 597.082031 502.449219 578.324219 495.242188 562.894531 482.960938 C 547.289062 471.023438 535.457031 453.722656 530.546875 434.90625 C 525.078125 416.195312 524.371094 396.882812 524.617188 377.957031 L 525.539062 377.890625 " fill-opacity="1" fill-rule="nonzero"/><path fill="#373434" d="M 510.628906 365.246094 C 520.59375 366.339844 530.121094 364.046875 538.710938 360.242188 C 547.398438 356.425781 554.984375 350.5625 562.40625 344.316406 C 569.925781 338.167969 577.449219 331.535156 584.542969 324.539062 C 591.605469 317.480469 598.175781 309.960938 604.351562 302.160156 L 606.125 305.089844 C 594.824219 308.054688 583.621094 311.335938 572.285156 314.019531 C 560.921875 316.558594 549.621094 319.386719 538.175781 321.574219 C 526.875 323.871094 515.757812 325.777344 505.6875 330.332031 C 495.804688 334.886719 486.546875 341.875 481.492188 352.394531 L 480.652344 352.152344 C 482.695312 340.183594 491.773438 330.054688 502.257812 323.835938 C 512.925781 317.515625 524.859375 314.371094 536.304688 312.113281 C 547.714844 309.78125 559.257812 308.125 570.738281 306.148438 C 582.210938 304.3125 593.863281 303.074219 605.417969 301.519531 L 610.851562 300.777344 L 607.179688 304.492188 C 600.085938 311.625 593.378906 319.035156 587.195312 326.945312 C 581.117188 334.996094 575.152344 343.148438 567.667969 350.28125 C 560.179688 357.265625 551.203125 363.203125 541.140625 366.558594 C 531.1875 369.875 519.886719 370.265625 510.421875 366.132812 L 510.628906 365.246094 " fill-opacity="1" fill-rule="nonzero"/><path fill="#373434" d="M 439.617188 340.320312 C 434.953125 351.167969 436.863281 362.671875 438.308594 374.113281 C 439.828125 385.582031 442.269531 396.808594 444.808594 408.078125 C 447.238281 419.339844 450.140625 430.738281 454.796875 441.441406 C 459.535156 452.132812 466 461.984375 473.375 470.984375 L 468.964844 472.015625 C 470.128906 459.976562 473.304688 448.363281 476.304688 437.066406 C 479.269531 425.792969 481.675781 414.605469 481.882812 403.585938 C 482.136719 392.640625 479.765625 381.597656 474.820312 371.539062 C 469.949219 361.398438 462.707031 352.257812 453.496094 344.910156 L 453.957031 344.132812 C 464.933594 349.042969 474.332031 357.621094 480.96875 368.078125 C 487.503906 378.523438 491.566406 390.988281 491.527344 403.625 C 491.527344 416.269531 488.066406 428.164062 484.46875 439.460938 C 480.898438 450.792969 476.621094 461.59375 473.800781 472.828125 L 472.355469 478.6875 L 469.390625 473.851562 C 463.097656 463.683594 457.554688 453.234375 452.148438 442.714844 C 446.789062 432.15625 441.34375 421.492188 437.53125 410.085938 C 433.894531 398.652344 431.917969 386.714844 431.320312 374.746094 C 430.785156 363.203125 430.929688 349.539062 438.839844 339.832031 L 439.617188 340.320312 " fill-opacity="1" fill-rule="nonzero"/><path fill="#373434" d="M 607.109375 464.566406 C 597.121094 460.855469 589.136719 453.296875 583.558594 444.757812 C 580.875 440.308594 579.175781 435.328125 576.527344 431.027344 C 573.949219 426.644531 570.703125 422.792969 567.167969 419.125 C 560 411.921875 553.679688 404.4375 546.828125 397.660156 C 540.292969 390.527344 533.511719 384.027344 525.359375 377.601562 L 525.710938 376.761719 C 536.304688 377.855469 546.015625 383.710938 553.644531 390.84375 C 561.058594 398.292969 566.960938 406.941406 571.226562 416.304688 C 573.488281 420.886719 575.820312 425.40625 578.964844 429.363281 C 582.039062 433.351562 586.097656 436.605469 589.527344 440.203125 C 596.125 447.648438 601.640625 455.3125 607.679688 463.855469 L 607.109375 464.566406 " fill-opacity="1" fill-rule="nonzero"/><path fill="#373434" d="M 551.554688 329.59375 C 547.496094 333.867188 543.617188 336.296875 539.0625 337.816406 C 536.695312 338.386719 533.835938 338.351562 531.605469 339.480469 C 529.34375 340.539062 527.726562 342.515625 526.28125 344.667969 C 523.558594 349.152344 520.097656 352.964844 515.503906 356.074219 C 510.847656 358.75 504.238281 360.414062 498.832031 357.59375 L 498.804688 356.707031 C 503.570312 353.5625 506.5 350.875 510.167969 348.019531 C 513.984375 345.554688 518.042969 342.617188 523.167969 340.816406 C 525.675781 339.796875 528.042969 338.738281 530.023438 337.039062 C 531.992188 335.386719 533.511719 332.800781 535.636719 331.109375 C 540.046875 328.074219 545.660156 326.945312 551.347656 328.707031 L 551.554688 329.59375 " fill-opacity="1" fill-rule="nonzero"/><path fill="#373434" d="M 464.480469 425.089844 C 460.59375 418.273438 458.828125 411.433594 458.441406 404.300781 C 458.441406 400.695312 459.28125 396.953125 458.929688 393.382812 C 458.648438 389.785156 457.410156 386.398438 455.925781 383.042969 C 452.753906 376.445312 450.703125 369.632812 448.941406 362.78125 C 447.527344 355.820312 446.824219 349.46875 445.269531 342.019531 L 446.011719 341.523438 C 452.644531 345.933594 456.144531 353.5625 458.261719 360.414062 C 460.03125 367.472656 461.125 374.636719 460.800781 382.058594 C 460.738281 385.765625 460.871094 389.398438 461.832031 392.859375 C 462.707031 396.355469 464.761719 399.675781 465.855469 403.136719 C 467.652344 410.195312 467.6875 417.535156 465.355469 424.988281 L 464.480469 425.089844 " fill-opacity="1" fill-rule="nonzero"/><g clip-path="url(#1efe27e19b)"><path fill="#373434" d="M 396.921875 216.335938 C 414.40625 210.964844 431.527344 204.785156 448.015625 197.410156 C 464.261719 189.816406 480.226562 180.921875 490.605469 166.9375 C 495.769531 159.949219 500.144531 152.074219 505.160156 144.203125 C 510.167969 136.363281 515.820312 128.949219 522.003906 122.066406 C 534.117188 108.050781 547.851562 95.867188 560.8125 83.019531 L 562.332031 85.738281 C 531.992188 92.585938 501.519531 101.378906 475.355469 117.6875 C 462.355469 125.84375 450.3125 135.445312 440.8125 147.167969 C 431.101562 158.640625 424.785156 172.625 417.46875 186.609375 C 410.09375 200.554688 402.753906 213.757812 398.257812 228.265625 C 395.863281 235.503906 393.882812 243.023438 391.660156 250.582031 C 389.328125 258.136719 386.824219 265.621094 384.066406 272.996094 C 373.191406 302.621094 358.148438 330.648438 339.75 355.964844 L 338.972656 355.46875 C 354.40625 328.28125 366.945312 299.792969 376.582031 270.417969 C 381.417969 255.695312 384.636719 240.765625 389.21875 225.410156 C 393.675781 209.871094 401.722656 195.644531 409.207031 182.1875 C 416.703125 168.738281 423.691406 154.089844 434.527344 141.835938 C 445.304688 129.691406 458.296875 119.914062 472.355469 112.5 C 500.53125 97.457031 531.503906 90.820312 561.554688 82.59375 L 567.378906 81.007812 L 563.109375 85.3125 C 550.21875 98.234375 538.105469 111.898438 527.058594 126.195312 C 521.613281 133.398438 516.460938 140.777344 511.726562 148.332031 C 507.03125 155.890625 502.9375 164.253906 496.863281 171.777344 C 484.640625 186.925781 467.515625 196.449219 450.277344 202.839844 C 433.046875 209.410156 415.246094 214.28125 397.128906 217.175781 L 396.921875 216.335938 " fill-opacity="1" fill-rule="nonzero"/></g><path fill="#373434" d="M 390.601562 233.523438 C 392.292969 222.40625 386.363281 212.726562 379.265625 205.035156 C 372.023438 197.265625 363.199219 189.5 356.59375 180.183594 C 349.847656 170.929688 344.765625 160.621094 340.457031 150.167969 C 336.179688 139.683594 332.328125 129.160156 329.046875 118.359375 L 332.191406 118.429688 C 328.800781 131.738281 326.191406 145.261719 325.765625 158.429688 C 325.691406 164.996094 326.082031 171.53125 327.707031 177.707031 C 329.300781 183.921875 331.976562 189.851562 334.949219 195.710938 C 341.125 207.394531 348.789062 218.339844 357.40625 228.933594 C 365.984375 239.492188 374.816406 249.9375 384.382812 259.863281 L 383.820312 260.566406 C 372.132812 253.011719 361.609375 243.800781 351.863281 233.839844 C 342.144531 223.988281 332.898438 212.910156 326.398438 200.164062 C 319.582031 187.558594 316.371094 172.199219 318 157.9375 C 319.410156 143.566406 324.597656 130.46875 329.046875 117.476562 L 330.917969 112.003906 L 332.191406 117.546875 C 334.660156 128.316406 338.511719 138.835938 344.089844 148.402344 C 349.53125 158.042969 356.277344 166.761719 362.984375 175.308594 C 366.375 179.613281 369.800781 183.816406 373.398438 187.910156 C 377.078125 191.929688 380.894531 196.171875 384.453125 200.761719 C 391.480469 209.691406 396.386719 222.859375 391.453125 233.804688 L 390.601562 233.523438 " fill-opacity="1" fill-rule="nonzero"/><path fill="#373434" d="M 403.03125 202.984375 C 409.035156 197.226562 416.730469 194.054688 423.898438 190.945312 C 431.390625 187.945312 437.566406 185.125 443.496094 180.605469 C 449.570312 176.332031 455.539062 171.070312 460.554688 165.03125 C 465.574219 158.960938 469.8125 152.25 474.648438 145.792969 C 479.378906 139.222656 484.785156 133.152344 490.859375 127.820312 C 496.824219 122.417969 503.109375 117.335938 509.78125 112.921875 C 523.277344 104.203125 537.617188 97.246094 552.695312 91.878906 L 553.148438 92.691406 C 540.863281 103 527.835938 111.828125 515.222656 120.867188 C 502.332031 129.585938 490.046875 138.800781 478.320312 149.074219 C 472.527344 154.300781 467.410156 160.300781 462.886719 166.796875 C 458.367188 173.292969 454.371094 180.390625 448.34375 186.355469 C 442.367188 192.390625 433.652344 195.683594 426.195312 197.554688 C 418.574219 199.777344 410.871094 200.96875 403.53125 203.761719 L 403.03125 202.984375 " fill-opacity="1" fill-rule="nonzero"/><path fill="#373434" d="M 380.46875 271.234375 C 392.753906 272.714844 404.6875 276.601562 415.355469 272.957031 C 426.339844 269.996094 436.4375 263.214844 447.527344 258.136719 C 458.476562 252.765625 469.558594 247.578125 479.765625 240.875 C 490.007812 234.265625 499.511719 226.566406 508.832031 218.730469 L 511.164062 224.304688 C 500.714844 226.675781 490.179688 228.726562 479.660156 230.632812 C 469.136719 232.601562 458.613281 234.511719 448.015625 235.894531 C 437.457031 237.476562 426.761719 238.398438 416.132812 239.636719 C 410.941406 240.097656 405.789062 240.730469 400.882812 242.210938 C 395.972656 243.585938 391.164062 245.671875 387.710938 249.660156 L 386.933594 249.160156 C 389.328125 244.046875 394.34375 240.546875 399.289062 238.117188 C 404.371094 235.710938 409.703125 234.121094 415.074219 232.855469 C 425.5625 230.769531 436.011719 228.335938 446.535156 226.566406 C 457.058594 224.632812 467.652344 223.210938 478.285156 221.875 C 488.878906 220.429688 499.511719 219.117188 510.167969 218.167969 L 523.339844 216.96875 L 512.503906 223.746094 C 502.085938 230.28125 491.492188 236.453125 481.25 243.160156 C 470.945312 249.765625 461.226562 257.285156 450.992188 264.136719 C 440.847656 270.84375 429.9375 277.378906 416.945312 279.992188 C 410.625 281.402344 403.421875 280.832031 397.492188 278.898438 C 391.453125 277.089844 385.863281 274.550781 380.214844 272.117188 L 380.46875 271.234375 " fill-opacity="1" fill-rule="nonzero"/><path fill="#373434" d="M 384.914062 257.53125 C 395.546875 256.472656 404.941406 254.457031 414.722656 252.488281 C 419.484375 251.671875 424.992188 250.933594 429.9375 249.414062 C 434.953125 247.894531 439.617188 245.527344 444.238281 242.953125 C 453.351562 237.582031 462.925781 233.417969 472.671875 229.710938 C 482.558594 226.394531 492.695312 223.710938 503.496094 222.722656 L 503.8125 223.566406 C 495.089844 229.992188 485.699219 234.65625 476.058594 238.714844 C 466.316406 242.355469 456.351562 245.601562 445.972656 247.578125 C 440.8125 248.671875 435.730469 250.011719 430.96875 252.171875 C 426.128906 254.214844 422.027344 257.601562 416.800781 259.71875 C 406.558594 263.359375 394.589844 263.640625 384.699219 258.417969 L 384.914062 257.53125 " fill-opacity="1" fill-rule="nonzero"/><path fill="#373434" d="M 133.65625 453.234375 C 155.6875 443.554688 173.839844 428.199219 191.289062 411.921875 C 208.980469 395.894531 226.917969 380.078125 239.285156 360.339844 C 251.851562 340.746094 259.761719 318.257812 264.28125 295.03125 C 268.800781 271.757812 269.46875 247.714844 267.953125 223.953125 L 270.246094 225.019531 C 243.125 244.785156 219.1875 268.828125 199.34375 295.519531 C 189.453125 308.902344 180.621094 322.984375 173.28125 337.816406 C 165.832031 352.574219 160.207031 368.25 155.019531 384.101562 C 149.867188 399.917969 144.921875 416.195312 140.546875 432.15625 C 136.378906 448.21875 133.828125 464.105469 136.9375 480.3125 C 138.25 488.464844 140.257812 496.617188 141.710938 505.058594 C 143.085938 513.5 144.035156 521.96875 144.496094 530.476562 C 145.554688 547.492188 144.144531 564.511719 141.214844 581.144531 L 140.292969 581 C 141.847656 564.269531 141.359375 547.457031 139.480469 530.898438 C 137.789062 514.207031 133.089844 498.523438 129.453125 481.6875 C 125.566406 464.703125 127.195312 446.273438 131.675781 429.898438 C 136.089844 413.367188 140.789062 397.378906 145.941406 381.136719 C 156.402344 348.871094 171.96875 317.445312 193.695312 291.144531 C 215.128906 264.527344 241.328125 242.5625 268.558594 222.6875 L 270.710938 221.097656 L 270.855469 223.78125 C 272.15625 247.714844 272.265625 271.792969 269.296875 295.84375 C 266.296875 319.777344 259.300781 343.816406 246.027344 364.652344 C 232.640625 385.582031 213.710938 401.4375 195.457031 416.730469 C 186.199219 424.3125 176.808594 431.976562 166.671875 438.609375 C 156.429688 445.074219 145.492188 450.476562 133.972656 454.074219 L 133.65625 453.234375 " fill-opacity="1" fill-rule="nonzero"/><path fill="#373434" d="M 31.382812 286.0625 C 42.234375 302.867188 51.726562 319.984375 60.59375 337.574219 C 64.761719 346.464844 68.574219 355.648438 73.375 364.261719 C 78.105469 372.949219 84.398438 380.578125 89.089844 389.824219 C 94.035156 399.25 94.703125 409.949219 96.472656 419.160156 C 98.238281 428.660156 100.777344 437.941406 103.886719 446.90625 C 109.816406 465.019531 119.601562 481.578125 133.902344 495.425781 L 133.378906 496.164062 C 115.359375 486.910156 101.90625 469.296875 94.8125 450.160156 C 91.214844 440.554688 89.269531 430.457031 88.066406 420.433594 C 86.730469 410.195312 87.398438 400.660156 84.496094 391.695312 C 78.25 373.410156 64.652344 357.800781 53.984375 341.167969 C 43.816406 324.113281 35.734375 305.757812 30.542969 286.445312 L 31.382812 286.0625 " fill-opacity="1" fill-rule="nonzero"/><g clip-path="url(#1519d9e4b4)"><path fill="#373434" d="M 107.035156 379.265625 C 111.835938 392.226562 114.90625 405.847656 115.152344 419.972656 C 115.007812 426.996094 114.128906 434.34375 110.171875 441.085938 C 108.199219 444.402344 104.980469 447.585938 100.742188 448.996094 C 96.539062 450.371094 92.269531 449.808594 88.601562 448.921875 C 60.765625 439.605469 38.804688 419.195312 24.007812 395.082031 C 9.109375 370.898438 1.550781 342.761719 0.484375 314.976562 C -0.746094 287.050781 2.996094 259.582031 7.980469 232.394531 L 9 226.710938 L 11.296875 232.1875 C 16.910156 245.5625 30.289062 252.9375 42.296875 261.914062 C 48.335938 266.46875 54.445312 271.695312 58.757812 278.714844 C 63.378906 285.8125 64.652344 293.792969 66.804688 300.460938 C 71.007812 314.054688 78.285156 327.015625 85.980469 339.722656 C 93.574219 352.539062 101.699219 365.285156 107.035156 379.265625 Z M 106.183594 379.582031 C 100.921875 365.636719 91.953125 353.632812 82.949219 341.777344 C 74.082031 329.871094 64.6875 317.660156 59.425781 302.902344 C 56.816406 295.519531 55.476562 288.496094 51.90625 282.917969 C 48.480469 277.125 43.289062 272.253906 37.847656 267.382812 C 32.378906 262.582031 26.375 257.957031 20.898438 252.621094 C 15.390625 247.289062 10.589844 240.800781 8.015625 233.34375 L 11.367188 233.136719 C 4.832031 259.71875 2.679688 287.511719 5.960938 314.515625 C 9.351562 341.414062 17.15625 367.789062 31.84375 390.140625 C 46.109375 412.492188 67.058594 431.128906 90.679688 441.476562 C 96.511719 443.480469 101.734375 442.847656 105.441406 437.832031 C 109.113281 432.996094 110.910156 426.363281 111.652344 419.757812 C 113.035156 406.378906 110.8125 392.433594 106.183594 379.582031 " fill-opacity="1" fill-rule="nonzero"/></g><path fill="#373434" d="M 136.234375 447.296875 C 148.882812 430.140625 162.929688 414.640625 176.808594 399.105469 C 184.011719 391.511719 191.398438 383.992188 197.4375 375.414062 C 203.503906 366.875 208.242188 357.484375 211.945312 347.703125 C 219.296875 328.183594 225.542969 308.019531 233.84375 288.566406 C 241.960938 269.824219 249.09375 248.636719 263.46875 232.539062 L 264.246094 233.027344 C 254.851562 252.0625 250.476562 272.082031 242.773438 292.199219 C 234.511719 311.480469 227.097656 331.253906 216.429688 349.820312 C 211.207031 359.109375 205.410156 368.039062 199.867188 377.042969 C 194.328125 386.042969 188.957031 395.328125 182.601562 403.914062 C 169.503906 420.714844 153.890625 435.195312 136.867188 447.9375 L 136.234375 447.296875 " fill-opacity="1" fill-rule="nonzero"/><path fill="#373434" d="M 345.789062 501.28125 C 353.164062 519.855469 365.742188 535.707031 380.894531 548.027344 C 396.179688 560.238281 413.691406 569.738281 432.414062 575.214844 C 441.734375 577.863281 451.128906 579.90625 460.628906 579.445312 C 470.167969 579.027344 479.730469 577.085938 489.160156 574.292969 C 508.054688 568.507812 526.632812 560.84375 543.753906 550.710938 L 543.683594 553.289062 C 516.707031 534.640625 488.136719 516.988281 456.667969 508.65625 C 440.992188 504.488281 425.027344 502.765625 408.890625 504.039062 C 392.753906 504.988281 376.4375 507.78125 359.558594 508.558594 C 351.1875 509.007812 342.363281 508.691406 334.308594 507.28125 L 309.699219 503.722656 C 293.769531 501.777344 277.527344 501.527344 261.496094 503.539062 C 229.429688 507.5 198.179688 519.25 171.058594 537.996094 L 170.488281 537.289062 C 195.601562 515.722656 227.097656 500.929688 260.367188 495.742188 C 276.964844 492.910156 294.015625 492.449219 310.828125 494.359375 C 327.210938 495.914062 343.3125 500.078125 359.242188 499.128906 C 375.34375 498.777344 391.730469 496.375 408.5 495.742188 C 425.316406 494.925781 442.546875 497.394531 458.476562 502.691406 C 490.507812 513.5 517.800781 532.878906 545.417969 550.746094 L 547.460938 552.050781 L 545.34375 553.359375 C 528.113281 563.734375 510.167969 573.089844 491.140625 580.183594 C 481.601562 583.71875 471.539062 586.609375 460.980469 587.109375 C 450.457031 587.675781 439.863281 586.050781 430.082031 582.804688 C 410.589844 576.378906 392.085938 566.492188 376.96875 552.582031 C 361.855469 538.84375 349.882812 521.191406 344.902344 501.5625 L 345.789062 501.28125 " fill-opacity="1" fill-rule="nonzero"/><path fill="#373434" d="M 284.449219 501.355469 C 291.230469 503.007812 296.699219 507.671875 301.464844 512.578125 C 306.203125 517.59375 310.117188 523.34375 313.507812 529.488281 C 320.429688 541.808594 322.90625 556.144531 323.394531 569.917969 C 323.855469 583.792969 322.519531 597.347656 320.648438 610.871094 C 318.765625 624.390625 315.800781 637.738281 311.78125 650.726562 L 309.589844 657.859375 L 306.835938 651.296875 C 301.4375 638.410156 295.714844 625.664062 289.359375 613.238281 C 283.175781 600.664062 275.085938 589.332031 269.433594 575.882812 C 263.722656 562.109375 264.144531 546.859375 265.980469 533.160156 C 266.859375 526.453125 266.785156 519.175781 268.628906 512.15625 C 269.613281 508.730469 270.890625 505.023438 273.925781 502.65625 C 277.027344 500.332031 281.058594 500.503906 284.449219 501.355469 Z M 284.234375 502.230469 C 280.953125 501.527344 277.210938 501.460938 274.703125 503.648438 C 272.335938 505.910156 271.304688 509.261719 270.988281 512.617188 C 270.320312 519.359375 271.449219 526.136719 271.765625 533.375 C 272.445312 547.394531 272.410156 560.734375 276.46875 573.441406 C 278.230469 579.90625 280.84375 586.292969 283.527344 592.757812 C 286.175781 599.21875 288.898438 605.679688 291.9375 611.964844 C 297.976562 624.535156 304.644531 636.816406 311.609375 648.964844 L 306.664062 649.488281 C 308.957031 636.292969 310.757812 623.089844 312.097656 609.847656 C 313.296875 596.644531 313.929688 583.257812 313.832031 570.160156 C 313.652344 557.066406 312.097656 544.210938 308.179688 531.820312 C 306.09375 525.601562 303.273438 519.566406 299.566406 514.132812 C 295.785156 508.765625 290.660156 504.003906 284.234375 502.230469 " fill-opacity="1" fill-rule="nonzero"/><path fill="#373434" d="M 334.171875 502.203125 C 342.886719 498.390625 350.515625 493.019531 357.757812 487.300781 C 365.035156 481.578125 371.707031 475.152344 377.746094 468.335938 C 383.675781 461.496094 389.824219 454.183594 395.4375 446.554688 C 401.160156 438.964844 406.070312 430.8125 411.113281 422.695312 L 412.667969 425.160156 C 401.015625 427.421875 389.753906 431.128906 378.523438 434.589844 C 367.332031 438.160156 356.167969 441.902344 346.421875 447.332031 C 336.433594 452.628906 329.046875 460.050781 322.519531 470.035156 C 315.800781 479.570312 309.375 490.300781 299.808594 497.964844 L 299.175781 497.324219 C 306.164062 487.722656 310.296875 476.707031 316.15625 466.148438 C 319.09375 460.890625 322.128906 455.421875 326.578125 450.550781 C 330.988281 445.8125 336.179688 441.828125 341.792969 438.898438 C 352.996094 432.933594 364.855469 429.898438 376.507812 427.140625 C 388.269531 424.421875 400.3125 423.253906 412.207031 421.988281 L 415.851562 421.636719 L 413.761719 424.492188 C 408.1875 432.121094 403.347656 440.308594 398.972656 448.777344 C 394.453125 457.21875 390.105469 465.871094 383.859375 473.570312 C 377.503906 481.191406 369.835938 487.445312 361.609375 492.742188 C 353.382812 497.890625 344.125 502.023438 334.417969 503.078125 L 334.171875 502.203125 " fill-opacity="1" fill-rule="nonzero"/><path fill="#373434" d="M 308 636.609375 C 303.941406 631.945312 302.457031 625.664062 301.257812 620.261719 C 300.054688 614.683594 299.105469 609.035156 298.925781 603.3125 C 298.851562 597.59375 299.492188 591.773438 299.140625 586.050781 C 298.789062 580.367188 297.511719 574.789062 296.03125 569.210938 C 292.675781 558.121094 291.644531 546.652344 288.4375 536.691406 C 285.644531 526.417969 280.953125 516.210938 277.453125 504.988281 L 278.230469 504.488281 C 286.53125 512.722656 293.625 522.25 297.660156 533.800781 C 299.59375 539.621094 300.234375 545.660156 300.660156 551.417969 C 301.148438 557.210938 301.113281 562.851562 300.976562 568.644531 C 300.867188 574.363281 301.011719 580.085938 302.035156 585.699219 C 303.054688 591.3125 305.035156 596.777344 306.375 602.363281 C 307.613281 607.941406 308 613.625 308.21875 619.339844 C 308.460938 625.167969 307.890625 630.5 308.8125 636.183594 L 308 636.609375 " fill-opacity="1" fill-rule="nonzero"/></svg>