<svg xmlns="http://www.w3.org/2000/svg" xmlns:xlink="http://www.w3.org/1999/xlink" width="1080" zoomAndPan="magnify" viewBox="0 0 810 809.999993" height="1080" preserveAspectRatio="xMidYMid meet" version="1.0"><defs><clipPath id="a0b6563397"><path d="M 118 85.9375 L 747 85.9375 L 747 579.964844 L 118 579.964844 Z M 118 85.9375 " clip-rule="nonzero"/></clipPath><clipPath id="1b8dbbc95c"><path d="M 242 449 L 472 449 L 472 724.578125 L 242 724.578125 Z M 242 449 " clip-rule="nonzero"/></clipPath><clipPath id="57b805cc6c"><path d="M 694 355 L 809.75 355 L 809.75 579 L 694 579 Z M 694 355 " clip-rule="nonzero"/></clipPath></defs><g clip-path="url(#a0b6563397)"><path fill="#373434" d="M 746.113281 86.363281 C 716.625 149.730469 684.945312 212.644531 644.265625 270.054688 C 603.085938 327.320312 552.269531 376.074219 501.5625 424.238281 C 475.890625 447.925781 451.101562 472.953125 421.160156 492.4375 C 391.171875 511.898438 357.585938 524.253906 324.109375 534.53125 C 257.15625 555.570312 188.398438 570.820312 118.941406 579.757812 L 118.796875 578.871094 C 187.265625 564.429688 254.824219 546.8125 321.324219 525.664062 C 354.378906 514.898438 387.355469 503.457031 416.601562 485.273438 C 445.695312 466.953125 471.441406 442.945312 498.246094 420.523438 C 524.699219 397.71875 550.617188 374.203125 574.203125 348.433594 C 598.003906 322.835938 618.878906 294.800781 638.125 265.78125 C 677.289062 208.199219 710.378906 146.628906 745.300781 85.9375 L 746.113281 86.363281 " fill-opacity="1" fill-rule="nonzero"/></g><path fill="#373434" d="M 171.347656 543.703125 C 178.296875 549.316406 185.007812 556.738281 185.929688 566.515625 C 186.425781 576.46875 180.207031 585.015625 174.3125 591.933594 C 168.128906 598.925781 161.277344 605.027344 154.394531 610.929688 C 147.363281 617.039062 139.523438 622.335938 130.980469 626.566406 C 122.402344 630.625 112.863281 633.488281 102.972656 633.632812 C 93.058594 633.84375 83.625 631.195312 74.9375 628.121094 C 57.667969 621.804688 41.175781 613.859375 25.496094 604.503906 C 21.578125 602.207031 17.65625 599.839844 13.84375 597.410156 L 8.125 593.667969 C 6.285156 592.355469 4.132812 591.652344 2.261719 589.113281 C 0.425781 586.390625 1.589844 582.929688 3.074219 581.058594 C 4.554688 579.015625 6.535156 577.460938 8.40625 576.1875 C 12.113281 573.574219 15.714844 570.820312 19.527344 568.316406 C 34.46875 557.964844 50.003906 548.222656 66.710938 540.605469 C 83.378906 533.292969 101.210938 527.21875 119.996094 526.828125 C 129.28125 526.550781 138.675781 527.75 147.472656 530.535156 C 156.195312 533.464844 164.351562 537.882812 171.347656 543.703125 Z M 170.777344 544.410156 C 163.824219 538.761719 155.589844 534.59375 146.875 532.832031 C 138.113281 531.175781 129.183594 531.105469 120.496094 532.480469 C 103.121094 535.234375 86.34375 541.410156 69.570312 547.519531 C 52.902344 553.773438 36.304688 561.039062 21.152344 570.746094 C 17.375 573.1875 13.632812 575.691406 10.066406 578.410156 C 6.640625 580.742188 3.074219 584.800781 4.910156 587.339844 C 5.722656 588.542969 7.980469 589.636719 9.890625 590.800781 L 15.785156 594.019531 C 19.777344 596.132812 23.765625 598.1875 27.828125 600.121094 C 44.074219 607.820312 60.777344 614.453125 77.65625 620.039062 C 86.0625 622.753906 94.46875 624.660156 102.695312 624.234375 C 110.957031 623.78125 119.148438 621.488281 126.851562 617.84375 C 134.652344 614.355469 141.929688 609.449219 148.917969 604.152344 C 156.050781 598.601562 163.4375 593.449219 170.070312 587.730469 C 176.535156 582.015625 182.78125 575.164062 183.386719 566.550781 C 183.742188 557.867188 177.558594 549.996094 170.777344 544.410156 " fill-opacity="1" fill-rule="nonzero"/><path fill="#373434" d="M 245.640625 583.039062 C 235.722656 590.875 225.273438 597.933594 214.921875 605.027344 C 209.769531 608.453125 204.894531 612.058594 201.042969 616.261719 C 197.191406 620.355469 194.859375 625.507812 192.671875 631.15625 C 190.519531 636.84375 188.503906 642.984375 185.257812 648.847656 C 182.003906 654.671875 177.945312 659.71875 173.921875 664.558594 C 165.867188 673.984375 157.714844 684.398438 157.496094 696.648438 L 154.675781 695.484375 L 169.863281 677.335938 C 175.015625 671.265625 181.019531 665.402344 188.296875 661.167969 C 195.320312 656.859375 202.769531 654.035156 209.164062 650.257812 C 215.664062 646.515625 220.609375 641.996094 223.960938 635.820312 C 227.277344 629.640625 229.613281 622.226562 232.261719 614.746094 L 240.414062 592.601562 C 243.0625 585.226562 246.066406 577.914062 248.96875 570.609375 C 250.414062 566.90625 251.96875 563.515625 252.25 559.980469 C 252.394531 558.253906 252.003906 556.3125 251.859375 554.261719 C 251.679688 552.289062 251.933594 549.707031 253.660156 548.222656 L 254.328125 548.828125 C 252.320312 552 254.933594 555.570312 255.359375 559.875 C 255.847656 564.292969 254.542969 568.386719 253.585938 572.128906 C 251.617188 579.757812 249.707031 587.414062 247.484375 594.933594 L 240.949219 617.601562 C 238.542969 625.011719 236.671875 632.882812 232.40625 640.515625 C 228.335938 648.386719 220.753906 654.390625 213.476562 658.0625 C 206.089844 661.875 198.710938 664.558594 192.039062 667.910156 C 178.941406 674.585938 168.164062 686.625 157.082031 697.671875 L 153.933594 700.816406 L 154.25 696.507812 C 155.210938 682.949219 163.960938 672.535156 170.570312 662.085938 C 173.960938 656.824219 177.203125 651.53125 179.429688 646.058594 C 181.589844 640.550781 182.964844 634.546875 185.113281 628.402344 C 187.230469 622.335938 190.414062 615.835938 195.394531 610.894531 C 200.195312 605.914062 205.953125 602.523438 211.457031 599.378906 C 222.585938 593.414062 233.632812 587.484375 245.1875 582.261719 L 245.640625 583.039062 " fill-opacity="1" fill-rule="nonzero"/><path fill="#373434" d="M 284.449219 427.691406 C 282.335938 408.871094 280.148438 389.957031 273.964844 372.4375 C 270.890625 363.71875 266.660156 355.527344 261.496094 348.082031 C 256.199219 340.695312 249.707031 334.207031 242.359375 328.804688 C 227.59375 318.003906 210.507812 310.519531 192.5 305.710938 C 174.519531 300.703125 155.769531 297.910156 136.984375 295.507812 L 138.785156 293.148438 C 150.789062 325.304688 168.554688 355.25 189.816406 382.046875 C 195.078125 388.753906 200.726562 395.179688 206.34375 401.640625 C 212.027344 408.03125 217.714844 414.347656 224.105469 419.394531 C 230.460938 424.554688 237.449219 427.980469 245.1875 428.539062 C 252.953125 429.316406 261.144531 427.445312 270.222656 426.742188 C 274.742188 426.386719 279.542969 426.425781 284.351562 427.375 C 289.152344 428.394531 293.210938 429.886719 297.414062 431.539062 C 305.714844 434.894531 313.515625 438.851562 321.109375 442.664062 C 328.773438 446.445312 336.367188 449.933594 344.207031 452.15625 C 352.191406 454.378906 360.550781 456.25 368.886719 457.5625 C 402.300781 462.648438 437.078125 460.488281 469.8125 449.761719 L 470.128906 450.609375 C 438.5625 464.835938 402.617188 469.671875 367.792969 465.503906 C 359.03125 464.484375 350.488281 463 341.800781 460.914062 C 333.015625 458.582031 324.851562 454.949219 316.976562 451.242188 C 309.101562 447.574219 301.546875 443.578125 293.84375 440.507812 C 290.074219 438.953125 286.003906 437.578125 282.371094 436.726562 C 278.738281 435.914062 274.847656 435.777344 270.789062 435.988281 C 262.699219 436.375 253.804688 438.246094 244.339844 437.1875 C 234.765625 436.304688 225.722656 431.539062 218.980469 425.609375 C 212.0625 419.644531 206.476562 412.867188 200.972656 406.1875 C 195.464844 399.445312 190.304688 392.457031 185.332031 385.363281 C 165.40625 356.902344 149.199219 326.226562 135.539062 294.449219 L 134.445312 291.835938 L 137.335938 292.082031 C 156.230469 293.671875 175.296875 294.875 194.15625 298.96875 C 212.90625 303.132812 231.664062 310.339844 247.09375 322.621094 C 262.699219 334.558594 274.53125 351.859375 279.441406 370.675781 C 284.910156 389.386719 285.617188 408.699219 285.371094 427.625 L 284.449219 427.691406 " fill-opacity="1" fill-rule="nonzero"/><path fill="#373434" d="M 299.359375 440.335938 C 289.394531 439.242188 279.867188 441.535156 271.277344 445.339844 C 262.589844 449.15625 255.007812 455.019531 247.582031 461.265625 C 240.0625 467.414062 232.539062 474.046875 225.445312 481.042969 C 218.382812 488.101562 211.8125 495.621094 205.636719 503.421875 L 203.863281 500.492188 C 215.164062 497.527344 226.367188 494.246094 237.703125 491.5625 C 249.066406 489.023438 260.367188 486.195312 271.8125 484.007812 C 283.113281 481.710938 294.230469 479.804688 304.304688 475.25 C 314.183594 470.695312 323.441406 463.707031 328.496094 453.1875 L 329.335938 453.429688 C 327.292969 465.398438 318.214844 475.527344 307.730469 481.746094 C 297.0625 488.066406 285.128906 491.210938 273.683594 493.46875 C 262.273438 495.800781 250.730469 497.457031 239.25 499.433594 C 227.777344 501.269531 216.125 502.507812 204.570312 504.0625 L 199.136719 504.804688 L 202.808594 501.089844 C 209.902344 493.957031 216.613281 486.546875 222.796875 478.636719 C 228.871094 470.585938 234.835938 462.433594 242.324219 455.300781 C 249.808594 448.316406 258.785156 442.375 268.847656 439.023438 C 278.800781 435.707031 290.101562 435.316406 299.566406 439.449219 L 299.359375 440.335938 " fill-opacity="1" fill-rule="nonzero"/><path fill="#373434" d="M 370.371094 465.261719 C 375.035156 454.414062 373.128906 442.910156 371.679688 431.46875 C 370.160156 420 367.722656 408.773438 365.179688 397.503906 C 362.75 386.242188 359.847656 374.84375 355.191406 364.140625 C 350.453125 353.449219 343.988281 343.597656 336.613281 334.597656 L 341.023438 333.566406 C 339.859375 345.605469 336.683594 357.21875 333.683594 368.515625 C 330.71875 379.789062 328.3125 390.976562 328.105469 401.996094 C 327.851562 412.941406 330.222656 423.984375 335.167969 434.042969 C 340.039062 444.183594 347.28125 453.320312 356.492188 460.671875 L 356.03125 461.449219 C 345.058594 456.539062 335.65625 447.960938 329.019531 437.503906 C 322.484375 427.058594 318.425781 414.59375 318.460938 401.957031 C 318.460938 389.3125 321.921875 377.417969 325.519531 366.121094 C 329.089844 354.789062 333.367188 343.988281 336.1875 332.753906 L 337.632812 326.894531 L 340.601562 331.730469 C 346.890625 341.898438 352.433594 352.347656 357.839844 362.867188 C 363.199219 373.425781 368.644531 384.089844 372.457031 395.496094 C 376.09375 406.929688 378.070312 418.867188 378.667969 430.835938 C 379.203125 442.375 379.058594 456.042969 371.148438 465.75 L 370.371094 465.261719 " fill-opacity="1" fill-rule="nonzero"/><path fill="#373434" d="M 202.878906 341.011719 C 212.867188 344.726562 220.851562 352.285156 226.429688 360.824219 C 229.113281 365.273438 230.8125 370.253906 233.460938 374.554688 C 236.039062 378.9375 239.285156 382.789062 242.820312 386.457031 C 249.988281 393.660156 256.308594 401.144531 263.160156 407.921875 C 269.695312 415.054688 276.476562 421.554688 284.632812 427.980469 L 284.277344 428.820312 C 273.683594 427.726562 263.972656 421.871094 256.34375 414.738281 C 248.929688 407.289062 243.027344 398.640625 238.761719 389.277344 C 236.5 384.695312 234.167969 380.175781 231.023438 376.21875 C 227.949219 372.230469 223.890625 368.976562 220.460938 365.378906 C 213.863281 357.933594 208.347656 350.269531 202.308594 341.726562 L 202.878906 341.011719 " fill-opacity="1" fill-rule="nonzero"/><path fill="#373434" d="M 258.433594 475.988281 C 262.492188 471.714844 266.371094 469.285156 270.925781 467.765625 C 273.292969 467.195312 276.152344 467.230469 278.382812 466.101562 C 280.644531 465.042969 282.261719 463.066406 283.710938 460.914062 C 286.429688 456.429688 289.894531 452.617188 294.484375 449.507812 C 299.140625 446.832031 305.75 445.167969 311.15625 447.988281 L 311.183594 448.875 C 306.417969 452.019531 303.488281 454.703125 299.820312 457.5625 C 296.003906 460.027344 291.945312 462.964844 286.820312 464.765625 C 284.316406 465.785156 281.945312 466.84375 279.964844 468.542969 C 277.996094 470.195312 276.476562 472.78125 274.351562 474.472656 C 269.941406 477.507812 264.328125 478.636719 258.640625 476.875 L 258.433594 475.988281 " fill-opacity="1" fill-rule="nonzero"/><path fill="#373434" d="M 345.507812 380.492188 C 349.394531 387.308594 351.160156 394.148438 351.546875 401.28125 C 351.546875 404.886719 350.707031 408.628906 351.058594 412.199219 C 351.339844 415.796875 352.578125 419.183594 354.0625 422.539062 C 357.234375 429.136719 359.285156 435.949219 361.050781 442.800781 C 362.460938 449.761719 363.164062 456.113281 364.71875 463.5625 L 363.976562 464.058594 C 357.34375 459.648438 353.84375 452.019531 351.730469 445.167969 C 349.957031 438.109375 348.863281 430.945312 349.1875 423.523438 C 349.25 419.816406 349.117188 416.183594 348.15625 412.722656 C 347.28125 409.226562 345.230469 405.90625 344.132812 402.445312 C 342.335938 395.386719 342.300781 388.046875 344.632812 380.59375 L 345.507812 380.492188 " fill-opacity="1" fill-rule="nonzero"/><g clip-path="url(#1b8dbbc95c)"><path fill="#373434" d="M 413.066406 589.246094 C 395.582031 594.617188 378.460938 600.796875 361.972656 608.171875 C 345.726562 615.765625 329.761719 624.660156 319.382812 638.644531 C 314.21875 645.632812 309.84375 653.507812 304.828125 661.378906 C 299.820312 669.21875 294.167969 676.632812 287.984375 683.515625 C 275.871094 697.53125 262.140625 709.714844 249.175781 722.5625 L 247.65625 719.84375 C 277.996094 712.996094 308.46875 704.203125 334.632812 687.894531 C 347.632812 679.738281 359.675781 670.136719 369.175781 658.414062 C 378.886719 646.941406 385.203125 632.957031 392.519531 618.972656 C 399.894531 605.027344 407.234375 591.824219 411.730469 577.316406 C 414.125 570.078125 416.105469 562.558594 418.328125 555 C 420.660156 547.445312 423.164062 539.960938 425.921875 532.585938 C 436.796875 502.960938 451.839844 474.933594 470.238281 449.617188 L 471.015625 450.113281 C 455.585938 477.300781 443.046875 505.789062 433.40625 535.164062 C 428.570312 549.886719 425.351562 564.816406 420.769531 580.171875 C 416.3125 595.710938 408.265625 609.933594 400.78125 623.394531 C 393.285156 636.84375 386.300781 651.492188 375.460938 663.746094 C 364.683594 675.890625 351.691406 685.667969 337.632812 693.082031 C 309.457031 708.125 278.484375 714.761719 248.433594 722.988281 L 242.613281 724.574219 L 246.878906 720.269531 C 259.769531 707.347656 271.882812 693.683594 282.929688 679.386719 C 288.375 672.183594 293.527344 664.804688 298.265625 657.25 C 302.957031 649.691406 307.050781 641.328125 313.125 633.804688 C 325.347656 618.65625 342.472656 609.132812 359.710938 602.742188 C 376.941406 596.171875 394.742188 591.300781 412.859375 588.40625 L 413.066406 589.246094 " fill-opacity="1" fill-rule="nonzero"/></g><path fill="#373434" d="M 419.386719 572.058594 C 417.695312 583.171875 423.625 592.855469 430.722656 600.546875 C 437.964844 608.316406 446.789062 616.082031 453.394531 625.398438 C 460.140625 634.652344 465.222656 644.960938 469.535156 655.414062 C 473.808594 665.898438 477.660156 676.417969 480.941406 687.222656 L 477.796875 687.152344 C 481.1875 673.84375 483.800781 660.320312 484.222656 647.152344 C 484.296875 640.585938 483.90625 634.050781 482.28125 627.875 C 480.6875 621.660156 478.011719 615.730469 475.039062 609.871094 C 468.863281 598.1875 461.199219 587.242188 452.582031 576.648438 C 444.003906 566.089844 435.171875 555.644531 425.605469 545.71875 L 426.167969 545.015625 C 437.855469 552.570312 448.378906 561.78125 458.125 571.742188 C 467.84375 581.59375 477.089844 592.671875 483.589844 605.417969 C 490.40625 618.023438 493.617188 633.382812 491.988281 647.644531 C 490.578125 662.015625 485.390625 675.113281 480.941406 688.105469 L 479.070312 693.578125 L 477.796875 688.035156 C 475.328125 677.265625 471.476562 666.746094 465.898438 657.179688 C 460.457031 647.539062 453.710938 638.820312 447.003906 630.273438 C 443.613281 625.96875 440.1875 621.765625 436.589844 617.671875 C 432.910156 613.652344 429.097656 609.410156 425.535156 604.820312 C 418.507812 595.890625 413.601562 582.722656 418.535156 571.777344 L 419.386719 572.058594 " fill-opacity="1" fill-rule="nonzero"/><path fill="#373434" d="M 406.957031 602.597656 C 400.953125 608.355469 393.261719 611.527344 386.089844 614.636719 C 378.597656 617.636719 372.421875 620.457031 366.492188 624.976562 C 360.417969 629.25 354.449219 634.511719 349.433594 640.550781 C 344.414062 646.621094 340.175781 653.328125 335.339844 659.789062 C 330.609375 666.359375 325.203125 672.429688 319.128906 677.761719 C 313.164062 683.164062 306.878906 688.246094 300.207031 692.660156 C 286.710938 701.378906 272.371094 708.335938 257.292969 713.703125 L 256.839844 712.890625 C 269.128906 702.582031 282.152344 693.753906 294.765625 684.714844 C 307.65625 675.996094 319.941406 666.78125 331.667969 656.507812 C 337.464844 651.28125 342.578125 645.28125 347.101562 638.785156 C 351.621094 632.289062 355.617188 625.191406 361.644531 619.226562 C 367.621094 613.191406 376.335938 609.898438 383.792969 608.027344 C 391.414062 605.804688 399.117188 604.613281 406.457031 601.820312 L 406.957031 602.597656 " fill-opacity="1" fill-rule="nonzero"/><path fill="#373434" d="M 429.519531 534.347656 C 417.234375 532.867188 405.300781 528.980469 394.632812 532.625 C 383.648438 535.585938 373.550781 542.367188 362.460938 547.445312 C 351.511719 552.8125 340.429688 558.003906 330.222656 564.707031 C 319.980469 571.316406 310.476562 579.015625 301.15625 586.851562 L 298.824219 581.277344 C 309.273438 578.90625 319.808594 576.855469 330.332031 574.949219 C 340.851562 572.980469 351.375 571.070312 361.972656 569.6875 C 372.53125 568.105469 383.226562 567.183594 393.855469 565.945312 C 399.046875 565.484375 404.199219 564.851562 409.109375 563.371094 C 414.015625 561.996094 418.824219 559.910156 422.28125 555.921875 L 423.058594 556.421875 C 420.660156 561.535156 415.644531 565.035156 410.699219 567.464844 C 405.617188 569.871094 400.285156 571.460938 394.914062 572.726562 C 384.425781 574.8125 373.976562 577.246094 363.453125 579.015625 C 352.929688 580.949219 342.335938 582.371094 331.703125 583.707031 C 321.109375 585.152344 310.476562 586.464844 299.820312 587.414062 L 286.648438 588.613281 L 297.488281 581.835938 C 307.902344 575.300781 318.496094 569.128906 328.738281 562.421875 C 339.046875 555.816406 348.761719 548.296875 358.996094 541.445312 C 369.140625 534.738281 380.050781 528.203125 393.042969 525.589844 C 399.363281 524.179688 406.566406 524.75 412.496094 526.683594 C 418.535156 528.492188 424.125 531.03125 429.773438 533.464844 L 429.519531 534.347656 " fill-opacity="1" fill-rule="nonzero"/><path fill="#373434" d="M 425.074219 548.050781 C 414.441406 549.109375 405.046875 551.125 395.265625 553.09375 C 390.503906 553.90625 384.996094 554.648438 380.050781 556.167969 C 375.035156 557.6875 370.371094 560.054688 365.75 562.628906 C 356.636719 568 347.0625 572.164062 337.316406 575.871094 C 327.429688 579.1875 317.292969 581.871094 306.492188 582.855469 L 306.175781 582.015625 C 314.898438 575.589844 324.292969 570.925781 333.929688 566.867188 C 343.671875 563.226562 353.636719 559.980469 364.015625 558.003906 C 369.175781 556.910156 374.257812 555.570312 379.019531 553.410156 C 383.859375 551.367188 387.960938 547.980469 393.1875 545.863281 C 403.429688 542.222656 415.398438 541.941406 425.289062 547.164062 L 425.074219 548.050781 " fill-opacity="1" fill-rule="nonzero"/><path fill="#373434" d="M 676.332031 352.347656 C 654.300781 362.027344 636.148438 377.382812 618.699219 393.660156 C 601.007812 409.6875 583.070312 425.503906 570.703125 445.242188 C 558.136719 464.835938 550.226562 487.324219 545.707031 510.550781 C 541.1875 533.824219 540.519531 557.867188 542.035156 581.628906 L 539.742188 580.5625 C 566.863281 560.796875 590.800781 536.753906 610.644531 510.0625 C 620.535156 496.679688 629.367188 482.597656 636.707031 467.765625 C 644.15625 453.003906 649.78125 437.332031 654.96875 421.480469 C 660.121094 405.664062 665.066406 389.386719 669.441406 373.425781 C 673.609375 357.363281 676.160156 341.472656 673.050781 325.269531 C 671.738281 317.117188 669.730469 308.964844 668.277344 300.523438 C 666.902344 292.082031 665.953125 283.613281 665.492188 275.105469 C 664.433594 258.089844 665.84375 241.070312 668.773438 224.4375 L 669.695312 224.582031 C 668.140625 241.3125 668.628906 258.125 670.507812 274.683594 C 672.199219 291.375 676.902344 307.058594 680.535156 323.894531 C 684.421875 340.878906 682.796875 359.308594 678.3125 375.683594 C 673.898438 392.214844 669.199219 408.203125 664.046875 424.445312 C 653.585938 456.710938 638.019531 488.136719 616.292969 514.4375 C 594.859375 541.054688 568.660156 563.019531 541.429688 582.894531 L 539.28125 584.484375 L 539.136719 581.800781 C 537.832031 557.867188 537.726562 533.789062 540.691406 509.738281 C 543.691406 485.804688 550.6875 461.765625 563.960938 440.929688 C 577.347656 420 596.277344 404.144531 614.53125 388.851562 C 623.789062 381.269531 633.183594 373.605469 643.316406 366.972656 C 653.558594 360.507812 664.496094 355.105469 676.015625 351.507812 L 676.332031 352.347656 " fill-opacity="1" fill-rule="nonzero"/><path fill="#373434" d="M 778.605469 519.519531 C 767.757812 502.714844 758.265625 485.597656 749.394531 468.007812 C 745.226562 459.117188 741.414062 449.933594 736.613281 441.320312 C 731.882812 432.632812 725.59375 425.003906 720.898438 415.757812 C 715.953125 406.332031 715.285156 395.632812 713.515625 386.421875 C 711.75 376.921875 709.210938 367.640625 706.101562 358.675781 C 700.171875 340.5625 690.390625 324.003906 676.085938 310.15625 L 676.613281 309.417969 C 694.628906 318.671875 708.082031 336.285156 715.175781 355.421875 C 718.777344 365.027344 720.71875 375.125 721.921875 385.148438 C 723.257812 395.386719 722.589844 404.921875 725.492188 413.886719 C 731.738281 432.171875 745.335938 447.78125 756.003906 464.410156 C 766.175781 481.46875 774.257812 499.824219 779.445312 519.136719 L 778.605469 519.519531 " fill-opacity="1" fill-rule="nonzero"/><g clip-path="url(#57b805cc6c)"><path fill="#373434" d="M 702.953125 426.316406 C 698.15625 413.355469 695.082031 399.734375 694.835938 385.609375 C 694.980469 378.585938 695.859375 371.238281 699.816406 364.496094 C 701.789062 361.179688 705.007812 357.996094 709.246094 356.585938 C 713.449219 355.210938 717.71875 355.773438 721.386719 356.660156 C 749.222656 365.976562 771.183594 386.386719 785.980469 410.5 C 800.878906 434.683594 808.4375 462.820312 809.503906 490.605469 C 810.734375 518.53125 806.992188 546 802.011719 573.1875 L 800.988281 578.871094 L 798.691406 573.394531 C 793.078125 560.019531 779.699219 552.644531 767.691406 543.667969 C 761.652344 539.113281 755.542969 533.886719 751.230469 526.867188 C 746.609375 519.769531 745.335938 511.789062 743.183594 505.121094 C 738.980469 491.527344 731.703125 478.566406 724.011719 465.859375 C 716.417969 453.042969 708.289062 440.296875 702.953125 426.316406 Z M 703.804688 426 C 709.066406 439.945312 718.035156 451.949219 727.039062 463.804688 C 735.90625 475.710938 745.300781 487.921875 750.5625 502.679688 C 753.175781 510.0625 754.511719 517.085938 758.082031 522.664062 C 761.507812 528.457031 766.699219 533.328125 772.140625 538.199219 C 777.609375 543 783.613281 547.625 789.089844 552.960938 C 794.597656 558.292969 799.398438 564.78125 801.972656 572.238281 L 798.621094 572.445312 C 805.15625 545.863281 807.308594 518.070312 804.027344 491.066406 C 800.636719 464.167969 792.835938 437.792969 778.144531 415.441406 C 763.878906 393.089844 742.929688 374.453125 719.308594 364.105469 C 713.476562 362.101562 708.253906 362.730469 704.546875 367.75 C 700.875 372.582031 699.078125 379.21875 698.335938 385.824219 C 696.953125 399.203125 699.175781 413.148438 703.804688 426 " fill-opacity="1" fill-rule="nonzero"/></g><path fill="#373434" d="M 673.753906 358.285156 C 661.105469 375.441406 647.058594 390.941406 633.179688 406.476562 C 625.976562 414.070312 618.589844 421.589844 612.550781 430.167969 C 606.484375 438.707031 601.75 448.097656 598.042969 457.878906 C 590.691406 477.398438 584.445312 497.5625 576.144531 517.015625 C 568.027344 535.757812 560.894531 556.945312 546.519531 573.042969 L 545.742188 572.554688 C 555.136719 553.519531 559.511719 533.5 567.214844 513.378906 C 575.476562 494.101562 582.890625 474.328125 593.558594 455.761719 C 598.78125 446.472656 604.578125 437.542969 610.121094 428.539062 C 615.660156 419.539062 621.03125 410.253906 627.386719 401.667969 C 640.484375 384.867188 656.097656 370.386719 673.121094 357.644531 L 673.753906 358.285156 " fill-opacity="1" fill-rule="nonzero"/><path fill="#373434" d="M 464.199219 304.300781 C 456.824219 285.726562 444.246094 269.875 429.097656 257.554688 C 413.808594 245.34375 396.296875 235.84375 377.574219 230.367188 C 368.253906 227.71875 358.863281 225.675781 349.359375 226.136719 C 339.824219 226.554688 330.257812 228.496094 320.828125 231.289062 C 301.933594 237.074219 283.355469 244.738281 266.234375 254.871094 L 266.304688 252.292969 C 293.28125 270.941406 321.851562 288.59375 353.320312 296.925781 C 368.996094 301.09375 384.960938 302.816406 401.097656 301.542969 C 417.234375 300.59375 433.554688 297.800781 450.429688 297.023438 C 458.800781 296.574219 467.625 296.890625 475.679688 298.300781 L 500.289062 301.859375 C 516.21875 303.804688 532.464844 304.054688 548.492188 302.039062 C 580.558594 298.082031 611.808594 286.332031 638.929688 267.585938 L 639.5 268.292969 C 614.386719 289.859375 582.890625 304.652344 549.621094 309.839844 C 533.023438 312.667969 515.972656 313.128906 499.160156 311.222656 C 482.777344 309.667969 466.675781 305.503906 450.746094 306.453125 C 434.648438 306.804688 418.257812 309.207031 401.488281 309.839844 C 384.671875 310.65625 367.441406 308.1875 351.511719 302.890625 C 319.480469 292.082031 292.1875 272.703125 264.570312 254.835938 L 262.527344 253.53125 L 264.644531 252.222656 C 281.875 241.847656 299.820312 232.492188 318.847656 225.398438 C 328.386719 221.863281 338.449219 218.972656 349.007812 218.472656 C 359.53125 217.90625 370.125 219.53125 379.90625 222.777344 C 399.398438 229.203125 417.902344 239.089844 433.019531 253 C 448.136719 266.738281 460.105469 284.390625 465.085938 304.019531 L 464.199219 304.300781 " fill-opacity="1" fill-rule="nonzero"/><path fill="#373434" d="M 525.539062 304.226562 C 518.757812 302.574219 513.289062 297.910156 508.523438 293.003906 C 503.789062 287.988281 499.871094 282.238281 496.484375 276.09375 C 489.558594 263.773438 487.082031 249.4375 486.59375 235.664062 C 486.132812 221.789062 487.46875 208.234375 489.339844 194.710938 C 491.222656 181.191406 494.1875 167.84375 498.210938 154.855469 L 500.398438 147.722656 L 503.15625 154.285156 C 508.550781 167.171875 514.273438 179.917969 520.628906 192.34375 C 526.8125 204.917969 534.902344 216.25 540.554688 229.699219 C 546.269531 243.472656 545.84375 258.722656 544.007812 272.421875 C 543.128906 279.128906 543.203125 286.40625 541.359375 293.425781 C 540.375 296.851562 539.097656 300.558594 536.0625 302.925781 C 532.960938 305.25 528.929688 305.078125 525.539062 304.226562 Z M 525.753906 303.351562 C 529.035156 304.054688 532.78125 304.121094 535.285156 301.933594 C 537.652344 299.671875 538.683594 296.320312 539 292.964844 C 539.667969 286.222656 538.539062 279.445312 538.222656 272.207031 C 537.542969 258.1875 537.578125 244.847656 533.519531 232.140625 C 531.757812 225.675781 529.144531 219.289062 526.460938 212.824219 C 523.8125 206.363281 521.089844 199.898438 518.054688 193.617188 C 512.015625 181.046875 505.34375 168.765625 498.382812 156.617188 L 503.328125 156.09375 C 501.03125 169.289062 499.230469 182.492188 497.894531 195.734375 C 496.691406 208.9375 496.058594 222.324219 496.15625 235.421875 C 496.339844 248.515625 497.894531 261.367188 501.808594 273.761719 C 503.894531 279.980469 506.714844 286.015625 510.421875 291.449219 C 514.203125 296.816406 519.328125 301.578125 525.753906 303.351562 " fill-opacity="1" fill-rule="nonzero"/><path fill="#373434" d="M 475.816406 303.378906 C 467.101562 307.191406 459.472656 312.5625 452.230469 318.28125 C 444.953125 324.003906 438.28125 330.429688 432.242188 337.246094 C 426.3125 344.085938 420.164062 351.398438 414.550781 359.027344 C 408.828125 366.617188 403.917969 374.769531 398.875 382.886719 L 397.320312 380.421875 C 408.972656 378.160156 420.238281 374.453125 431.464844 370.992188 C 442.65625 367.421875 453.820312 363.679688 463.566406 358.25 C 473.554688 352.953125 480.941406 345.53125 487.46875 335.546875 C 494.1875 326.011719 500.613281 315.28125 510.179688 307.617188 L 510.8125 308.257812 C 503.824219 317.859375 499.691406 328.875 493.832031 339.433594 C 490.894531 344.691406 487.859375 350.160156 483.410156 355.03125 C 479 359.769531 473.808594 363.753906 468.195312 366.683594 C 456.996094 372.648438 445.132812 375.683594 433.480469 378.441406 C 421.71875 381.160156 409.675781 382.328125 397.78125 383.59375 L 394.136719 383.945312 L 396.226562 381.089844 C 401.804688 373.460938 406.640625 365.273438 411.015625 356.804688 C 415.535156 348.363281 419.882812 339.710938 426.128906 332.011719 C 432.484375 324.390625 440.152344 318.136719 448.378906 312.839844 C 456.605469 307.691406 465.863281 303.558594 475.574219 302.5 L 475.816406 303.378906 " fill-opacity="1" fill-rule="nonzero"/><path fill="#373434" d="M 501.988281 168.972656 C 506.046875 173.636719 507.53125 179.917969 508.730469 185.320312 C 509.933594 190.898438 510.882812 196.546875 511.066406 202.269531 C 511.136719 207.988281 510.496094 213.808594 510.847656 219.53125 C 511.199219 225.214844 512.476562 230.792969 513.957031 236.371094 C 517.3125 247.460938 518.34375 258.929688 521.550781 268.890625 C 524.34375 279.164062 529.035156 289.371094 532.535156 300.59375 L 531.757812 301.09375 C 523.460938 292.859375 516.363281 283.332031 512.332031 271.78125 C 510.394531 265.960938 509.753906 259.921875 509.328125 254.164062 C 508.839844 248.371094 508.878906 242.730469 509.011719 236.9375 C 509.121094 231.21875 508.976562 225.496094 507.953125 219.882812 C 506.933594 214.269531 504.953125 208.804688 503.617188 203.21875 C 502.378906 197.640625 501.988281 191.957031 501.769531 186.242188 C 501.527344 180.414062 502.097656 175.082031 501.175781 169.394531 L 501.988281 168.972656 " fill-opacity="1" fill-rule="nonzero"/></svg>