<svg width="40" height="40" viewBox="0 0 40 40" fill="none" xmlns="http://www.w3.org/2000/svg">
<path d="M34.6542 15.8704C35.9709 17.1871 35.9709 19.3219 34.6542 20.6386C33.3375 21.9553 31.2027 21.9553 29.886 20.6386C28.5693 19.3219 28.5693 17.1871 29.886 15.8704C31.2027 14.5536 33.3375 14.5536 34.6542 15.8704" stroke="white" stroke-width="1.5" stroke-linecap="round" stroke-linejoin="round"/>
<path d="M23.6733 9.85385C25.7007 11.8813 25.7007 15.1685 23.6733 17.196C21.6458 19.2235 18.3586 19.2235 16.3311 17.196C14.3037 15.1685 14.3037 11.8813 16.3311 9.85385C18.3586 7.82639 21.6458 7.82639 23.6733 9.85385" stroke="white" stroke-width="1.5" stroke-linecap="round" stroke-linejoin="round"/>
<path d="M10.1171 15.8704C11.4338 17.1871 11.4338 19.3219 10.1171 20.6386C8.8004 21.9553 6.66558 21.9553 5.34887 20.6386C4.03215 19.3219 4.03215 17.1871 5.34887 15.8704C6.66559 14.5536 8.8004 14.5536 10.1171 15.8704" stroke="white" stroke-width="1.5" stroke-linecap="round" stroke-linejoin="round"/>
<path d="M38.3337 31.6637V29.8371C38.3337 27.5354 36.4687 25.6704 34.167 25.6704H32.832" stroke="white" stroke-width="1.5" stroke-linecap="round" stroke-linejoin="round"/>
<path d="M1.66602 31.6637V29.8371C1.66602 27.5354 3.53102 25.6704 5.83268 25.6704H7.16768" stroke="white" stroke-width="1.5" stroke-linecap="round" stroke-linejoin="round"/>
<path d="M28.8979 31.6657V28.9974C28.8979 25.7757 26.2863 23.1641 23.0646 23.1641H16.9329C13.7113 23.1641 11.0996 25.7757 11.0996 28.9974V31.6657" stroke="white" stroke-width="1.5" stroke-linecap="round" stroke-linejoin="round"/>
</svg>
