<svg width="40" height="40" viewBox="0 0 40 40" fill="none" xmlns="http://www.w3.org/2000/svg">
<path d="M3.33398 31.6667C3.33398 28 6.33398 25 10.0007 25H16.6673C20.334 25 23.334 28 23.334 31.6667" stroke="white" stroke-width="1.5" stroke-linecap="round" stroke-linejoin="round"/>
<path d="M17.5024 10.0018C19.8357 12.3351 19.8357 16.0018 17.5024 18.1685C15.1691 20.3351 11.5024 20.5018 9.33573 18.1685C7.16907 15.8351 7.0024 12.3351 9.16907 10.0018C11.3357 7.66847 15.1691 7.83513 17.5024 10.0018" stroke="white" stroke-width="1.5" stroke-linecap="round" stroke-linejoin="round"/>
<path d="M26.668 23.3333H31.668C34.5013 23.3333 36.668 25.4999 36.668 28.3333" stroke="white" stroke-width="1.5" stroke-linecap="round" stroke-linejoin="round"/>
<path d="M32.1662 11.1704C33.8329 12.8371 33.8329 15.5037 32.1662 17.0037C30.4995 18.5037 27.8329 18.6704 26.3329 17.0037C24.8329 15.3371 24.6662 12.6704 26.3329 11.1704C27.8329 9.67041 30.4995 9.67041 32.1662 11.1704" stroke="white" stroke-width="1.5" stroke-linecap="round" stroke-linejoin="round"/>
</svg>
