<svg width="32" height="32" viewBox="0 0 32 32" fill="none" xmlns="http://www.w3.org/2000/svg">
<path fill-rule="evenodd" clip-rule="evenodd" d="M10.4726 13.5232C8.91258 11.9632 7.73658 10.2165 6.95525 8.4445C6.78992 8.06983 6.88725 7.63117 7.17658 7.34183L8.26858 6.25117C9.16325 5.3565 9.16325 4.09117 8.38192 3.30983L6.81658 1.7445C5.77525 0.703168 4.08725 0.703168 3.04592 1.7445L2.17658 2.61383C1.18858 3.60183 0.776582 5.02717 1.04325 6.4405C1.70192 9.9245 3.72592 13.7392 6.99125 17.0045C10.2566 20.2698 14.0713 22.2938 17.5553 22.9525C18.9686 23.2192 20.3939 22.8072 21.3819 21.8192L22.2499 20.9512C23.2913 19.9098 23.2913 18.2218 22.2499 17.1805L20.6859 15.6165C19.9046 14.8352 18.6379 14.8352 17.8579 15.6165L16.6539 16.8218C16.3646 17.1112 15.9259 17.2085 15.5512 17.0432C13.7792 16.2605 12.0326 15.0832 10.4726 13.5232Z" stroke="white" stroke-width="1.5" stroke-linecap="round" stroke-linejoin="round"/>
</svg>
