<svg width="32" height="32" viewBox="0 0 32 32" fill="none" xmlns="http://www.w3.org/2000/svg">
<path fill-rule="evenodd" clip-rule="evenodd" d="M14.4723 17.5232C12.9123 15.9632 11.7363 14.2166 10.9549 12.4446C10.7896 12.0699 10.8869 11.6312 11.1763 11.3419L12.2683 10.2512C13.1629 9.35656 13.1629 8.09123 12.3816 7.3099L10.8163 5.74456C9.77492 4.70323 8.08692 4.70323 7.04559 5.74456L6.17626 6.6139C5.18826 7.6019 4.77626 9.02723 5.04292 10.4406C5.70159 13.9246 7.72559 17.7392 10.9909 21.0046C14.2563 24.2699 18.0709 26.2939 21.5549 26.9526C22.9683 27.2192 24.3936 26.8072 25.3816 25.8192L26.2496 24.9512C27.2909 23.9099 27.2909 22.2219 26.2496 21.1806L24.6856 19.6166C23.9043 18.8352 22.6376 18.8352 21.8576 19.6166L20.6536 20.8219C20.3643 21.1112 19.9256 21.2086 19.5509 21.0432C17.7789 20.2606 16.0323 19.0832 14.4723 17.5232Z" stroke="white" stroke-width="1.5" stroke-linecap="round" stroke-linejoin="round"/>
</svg>
