<svg width="32" height="32" viewBox="0 0 32 32" fill="none" xmlns="http://www.w3.org/2000/svg">
<path fill-rule="evenodd" clip-rule="evenodd" d="M14.4723 17.5232C12.9123 15.9632 11.7363 14.2165 10.9549 12.4445C10.7896 12.0698 10.8869 11.6312 11.1763 11.3418L12.2683 10.2512C13.1629 9.3565 13.1629 8.09117 12.3816 7.30983L10.8163 5.7445C9.77492 4.70317 8.08692 4.70317 7.04559 5.7445L6.17626 6.61383C5.18826 7.60183 4.77626 9.02717 5.04292 10.4405C5.70159 13.9245 7.72559 17.7392 10.9909 21.0045C14.2563 24.2698 18.0709 26.2938 21.5549 26.9525C22.9683 27.2192 24.3936 26.8072 25.3816 25.8192L26.2496 24.9512C27.2909 23.9098 27.2909 22.2218 26.2496 21.1805L24.6856 19.6165C23.9043 18.8352 22.6376 18.8352 21.8576 19.6165L20.6536 20.8218C20.3643 21.1112 19.9256 21.2085 19.5509 21.0432C17.7789 20.2605 16.0323 19.0832 14.4723 17.5232Z" stroke="white" stroke-width="1.5" stroke-linecap="round" stroke-linejoin="round"/>
</svg>
