<svg width="32" height="32" viewBox="0 0 32 32" fill="none" xmlns="http://www.w3.org/2000/svg">
<path fill-rule="evenodd" clip-rule="evenodd" d="M9.99467 4H22.0067C25.316 4 28 6.68267 28 9.99467V22.0067C28 25.316 25.3173 28 22.0053 28H9.99467C6.684 28 4 25.3173 4 22.0053V9.99467C4 6.684 6.68267 4 9.99467 4V4Z" stroke="#302924" stroke-width="1.5" stroke-linecap="round" stroke-linejoin="round"/>
<path d="M22.6035 8.95104C22.3555 8.95237 22.1542 9.15371 22.1542 9.40171C22.1542 9.64971 22.3568 9.85104 22.6048 9.85104C22.8528 9.85104 23.0542 9.64971 23.0542 9.40171C23.0555 9.15237 22.8528 8.95104 22.6035 8.95104" stroke="#302924" stroke-width="1.5" stroke-linecap="round" stroke-linejoin="round"/>
<path d="M19.3914 12.6038C21.2659 14.4783 21.2659 17.5175 19.3914 19.392C17.5169 21.2665 14.4777 21.2665 12.6032 19.392C10.7286 17.5175 10.7286 14.4783 12.6032 12.6038C14.4777 10.7292 17.5169 10.7292 19.3914 12.6038" stroke="#302924" stroke-width="1.5" stroke-linecap="round" stroke-linejoin="round"/>
</svg>
