<svg width="24" height="24" viewBox="0 0 24 24" fill="none" xmlns="http://www.w3.org/2000/svg">
<path fill-rule="evenodd" clip-rule="evenodd" d="M10.4716 13.5232C8.91161 11.9632 7.73561 10.2165 6.95427 8.4445C6.78894 8.06983 6.88627 7.63117 7.17561 7.34183L8.26761 6.25117C9.16227 5.3565 9.16227 4.09117 8.38094 3.30983L6.81561 1.7445C5.77427 0.703168 4.08627 0.703168 3.04494 1.7445L2.17561 2.61383C1.18761 3.60183 0.775606 5.02717 1.04227 6.4405C1.70094 9.9245 3.72494 13.7392 6.99027 17.0045C10.2556 20.2698 14.0703 22.2938 17.5543 22.9525C18.9676 23.2192 20.3929 22.8072 21.3809 21.8192L22.2489 20.9512C23.2903 19.9098 23.2903 18.2218 22.2489 17.1805L20.6849 15.6165C19.9036 14.8352 18.6369 14.8352 17.8569 15.6165L16.6529 16.8218C16.3636 17.1112 15.9249 17.2085 15.5503 17.0432C13.7783 16.2605 12.0316 15.0832 10.4716 13.5232Z" stroke="#302924" stroke-width="1.5" stroke-linecap="round" stroke-linejoin="round"/>
</svg>
