<svg width="32" height="32" viewBox="0 0 32 32" fill="none" xmlns="http://www.w3.org/2000/svg">
<path fill-rule="evenodd" clip-rule="evenodd" d="M14.4726 17.5232C12.9126 15.9632 11.7366 14.2165 10.9552 12.4445C10.7899 12.0698 10.8872 11.6312 11.1766 11.3418L12.2686 10.2512C13.1632 9.3565 13.1632 8.09117 12.3819 7.30983L10.8166 5.7445C9.77525 4.70317 8.08725 4.70317 7.04592 5.7445L6.17658 6.61383C5.18858 7.60183 4.77658 9.02717 5.04325 10.4405C5.70192 13.9245 7.72592 17.7392 10.9912 21.0045C14.2566 24.2698 18.0713 26.2938 21.5553 26.9525C22.9686 27.2192 24.3939 26.8072 25.3819 25.8192L26.2499 24.9512C27.2913 23.9098 27.2913 22.2218 26.2499 21.1805L24.6859 19.6165C23.9046 18.8352 22.6379 18.8352 21.8579 19.6165L20.6539 20.8218C20.3646 21.1112 19.9259 21.2085 19.5512 21.0432C17.7792 20.2605 16.0326 19.0832 14.4726 17.5232Z" stroke="white" stroke-width="1.5" stroke-linecap="round" stroke-linejoin="round"/>
</svg>
