<svg width="32" height="32" viewBox="0 0 32 32" fill="none" xmlns="http://www.w3.org/2000/svg">
<path fill-rule="evenodd" clip-rule="evenodd" d="M9.99467 4H22.0067C25.316 4 28 6.68267 28 9.99467V22.0067C28 25.316 25.3173 28 22.0053 28H9.99467C6.684 28 4 25.3173 4 22.0053V9.99467C4 6.684 6.68267 4 9.99467 4V4Z" stroke="white" stroke-width="1.5" stroke-linecap="round" stroke-linejoin="round"/>
<path d="M22.6035 8.95104C22.3555 8.95237 22.1542 9.15371 22.1542 9.40171C22.1542 9.64971 22.3568 9.85104 22.6048 9.85104C22.8528 9.85104 23.0542 9.64971 23.0542 9.40171C23.0555 9.15237 22.8528 8.95104 22.6035 8.95104" stroke="white" stroke-width="1.5" stroke-linecap="round" stroke-linejoin="round"/>
<path d="M19.3924 12.6039C21.2669 14.4784 21.2669 17.5176 19.3924 19.3921C17.5178 21.2666 14.4787 21.2666 12.6041 19.3921C10.7296 17.5176 10.7296 14.4784 12.6041 12.6039C14.4787 10.7294 17.5178 10.7294 19.3924 12.6039" stroke="white" stroke-width="1.5" stroke-linecap="round" stroke-linejoin="round"/>
</svg>
