<svg width="24" height="24" viewBox="0 0 24 24" fill="none" xmlns="http://www.w3.org/2000/svg">
<path fill-rule="evenodd" clip-rule="evenodd" d="M10.8542 13.1424C9.68419 11.9724 8.80219 10.6624 8.21619 9.33341C8.09219 9.05241 8.16519 8.72341 8.38219 8.50641L9.20119 7.68841C9.87219 7.01741 9.87219 6.06841 9.28619 5.48241L8.11219 4.30841C7.33119 3.52741 6.06519 3.52741 5.28419 4.30841L4.63219 4.96041C3.89119 5.70141 3.58219 6.77041 3.78219 7.83041C4.27619 10.4434 5.79419 13.3044 8.24319 15.7534C10.6922 18.2024 13.5532 19.7204 16.1662 20.2144C17.2262 20.4144 18.2952 20.1054 19.0362 19.3644L19.6872 18.7134C20.4682 17.9324 20.4682 16.6664 19.6872 15.8854L18.5142 14.7124C17.9282 14.1264 16.9782 14.1264 16.3932 14.7124L15.4902 15.6164C15.2732 15.8334 14.9442 15.9064 14.6632 15.7824C13.3342 15.1954 12.0242 14.3124 10.8542 13.1424Z" stroke="#DB2664" stroke-width="1.5" stroke-linecap="round" stroke-linejoin="round"/>
</svg>
