<svg width="22" height="26" viewBox="0 0 22 26" fill="none" xmlns="http://www.w3.org/2000/svg">
<path fill-rule="evenodd" clip-rule="evenodd" d="M1.6665 10.3333C1.6665 17.3333 10.9998 25 10.9998 25C10.9998 25 20.3332 17.3333 20.3332 10.3333C20.3332 5.17867 16.1545 1 10.9998 1C5.84517 1 1.6665 5.17867 1.6665 10.3333ZM7 10.3334C7 12.5427 8.79067 14.3334 11 14.3334C13.2093 14.3334 15 12.5427 15 10.3334C15 8.12404 13.2093 6.33337 11 6.33337C8.79067 6.33337 7 8.12404 7 10.3334Z" fill="#222222"/>
<path d="M10.9998 25L10.3651 25.7727C10.734 26.0758 11.2657 26.0758 11.6346 25.7727L10.9998 25ZM10.9998 25C11.6346 24.2273 11.6347 24.2274 11.6348 24.2275C11.6348 24.2275 11.6349 24.2275 11.6348 24.2275C11.6348 24.2274 11.6346 24.2273 11.6342 24.227C11.6336 24.2264 11.6323 24.2254 11.6305 24.2239C11.627 24.221 11.6212 24.2162 11.6133 24.2096C11.5976 24.1965 11.5733 24.1762 11.5411 24.1489C11.4767 24.0944 11.3806 24.0122 11.2573 23.9043C11.0107 23.6885 10.6558 23.3705 10.2289 22.9664C9.37369 22.157 8.23567 21.0086 7.10045 19.6504C4.78268 16.8773 2.6665 13.4512 2.6665 10.3333H0.666504C0.666504 14.2155 3.21699 18.1227 5.56589 20.933C6.76401 22.3664 7.95932 23.5721 8.85412 24.419C9.30216 24.843 9.67648 25.1786 9.94029 25.4095C10.0722 25.5249 10.1767 25.6143 10.249 25.6755C10.2851 25.7061 10.3132 25.7297 10.3328 25.7459C10.3426 25.7541 10.3502 25.7604 10.3556 25.7649C10.3583 25.7671 10.3605 25.7689 10.362 25.7702C10.3628 25.7709 10.3635 25.7714 10.364 25.7718C10.3642 25.772 10.3645 25.7723 10.3647 25.7724C10.3649 25.7726 10.3651 25.7727 10.9998 25ZM19.3332 10.3333C19.3332 13.4512 17.217 16.8773 14.8992 19.6504C13.764 21.0086 12.626 22.157 11.7708 22.9664C11.3438 23.3705 10.989 23.6885 10.7424 23.9043C10.6191 24.0122 10.523 24.0944 10.4586 24.1489C10.4264 24.1762 10.4021 24.1965 10.3863 24.2096C10.3785 24.2162 10.3727 24.221 10.3691 24.2239C10.3673 24.2254 10.3661 24.2264 10.3654 24.227C10.3651 24.2273 10.3649 24.2274 10.3648 24.2275C10.3648 24.2275 10.3649 24.2275 10.3649 24.2275C10.365 24.2274 10.3651 24.2273 10.9998 25C11.6346 25.7727 11.6348 25.7726 11.635 25.7724C11.6351 25.7723 11.6354 25.772 11.6357 25.7718C11.6362 25.7714 11.6368 25.7709 11.6376 25.7702C11.6392 25.7689 11.6414 25.7671 11.6441 25.7649C11.6495 25.7604 11.6571 25.7541 11.6669 25.7459C11.6864 25.7297 11.7146 25.7061 11.7507 25.6755C11.823 25.6143 11.9274 25.5249 12.0594 25.4095C12.3232 25.1786 12.6975 24.843 13.1456 24.419C14.0404 23.5721 15.2357 22.3664 16.4338 20.933C18.7827 18.1227 21.3332 14.2155 21.3332 10.3333H19.3332ZM10.9998 2C15.6022 2 19.3332 5.73095 19.3332 10.3333H21.3332C21.3332 4.62638 16.7068 0 10.9998 0V2ZM2.6665 10.3333C2.6665 5.73095 6.39746 2 10.9998 2V0C5.29289 0 0.666504 4.62638 0.666504 10.3333H2.6665ZM11 13.3334C9.34295 13.3334 8 11.9904 8 10.3334H6C6 13.095 8.23838 15.3334 11 15.3334V13.3334ZM14 10.3334C14 11.9904 12.657 13.3334 11 13.3334V15.3334C13.7616 15.3334 16 13.095 16 10.3334H14ZM11 7.33337C12.657 7.33337 14 8.67633 14 10.3334H16C16 7.57176 13.7616 5.33337 11 5.33337V7.33337ZM8 10.3334C8 8.67633 9.34295 7.33337 11 7.33337V5.33337C8.23838 5.33337 6 7.57176 6 10.3334H8Z" fill="#222222"/>
</svg>
