<svg width="25" height="36" viewBox="0 0 25 36" fill="none" xmlns="http://www.w3.org/2000/svg">
<path d="M4.77453 35.4545L2.68362 10.3636H22.2253L20.1344 35.4545H4.77453Z" stroke="#49A979" stroke-width="1.09091"/>
<circle cx="12.4545" cy="22.3637" r="4.36364" stroke="#49A979" stroke-width="1.09091"/>
<mask id="path-3-inside-1_133_385" fill="white">
<path d="M22.8181 10.9091C22.8181 8.01582 21.7262 5.24105 19.7827 3.1952C17.8391 1.14935 15.2031 2.18436e-07 12.4545 0C9.70585 -2.18436e-07 7.06982 1.14935 5.12626 3.1952C3.1827 5.24105 2.09082 8.01582 2.09082 10.9091L12.4545 10.9091H22.8181Z"/>
</mask>
<path d="M22.8181 10.9091C22.8181 8.01582 21.7262 5.24105 19.7827 3.1952C17.8391 1.14935 15.2031 2.18436e-07 12.4545 0C9.70585 -2.18436e-07 7.06982 1.14935 5.12626 3.1952C3.1827 5.24105 2.09082 8.01582 2.09082 10.9091L12.4545 10.9091H22.8181Z" stroke="#49A979" stroke-width="2.18182" mask="url(#path-3-inside-1_133_385)"/>
<path d="M1 10.3635H23.9091" stroke="#49A979" stroke-width="1.09091" stroke-linecap="round"/>
</svg>
